<?xml version="1.0" encoding="UTF-8"?>
<svg version="1.1" xmlns="http://www.w3.org/2000/svg" width="500" height="500">
<path d="M0 0 C1.49569661 -0.01169993 1.49569661 -0.01169993 3.02160931 -0.02363622 C6.36675014 -0.04359852 9.71075869 -0.02777432 13.0559082 -0.01205444 C15.45245021 -0.01882864 17.84898701 -0.02773064 20.24551392 -0.03860474 C26.08134545 -0.05905686 31.91681645 -0.05603651 37.75265908 -0.04154153 C42.4955638 -0.03024894 47.23837842 -0.02871844 51.98129272 -0.03416061 C52.99389334 -0.03530986 52.99389334 -0.03530986 54.02695054 -0.03648233 C55.39834224 -0.03808096 56.76973391 -0.03970202 58.14112556 -0.04134528 C71.00031127 -0.05560259 83.85931875 -0.03921044 96.71847522 -0.01234345 C107.75194058 0.0099954 118.78514291 0.00611526 129.81860352 -0.01693726 C142.63179893 -0.04369569 155.44483814 -0.0542293 168.25805759 -0.03887594 C169.62440043 -0.03728319 170.9907433 -0.03571134 172.35708618 -0.03416061 C173.36548279 -0.03300355 173.36548279 -0.03300355 174.39425105 -0.03182311 C179.13139228 -0.02750621 183.86843442 -0.03479238 188.6055603 -0.04655838 C194.98161259 -0.06098271 201.35716731 -0.0510178 207.73316574 -0.0220871 C210.07571969 -0.01546551 212.41831538 -0.01739212 214.76085281 -0.02840042 C217.95393028 -0.04202427 221.14540418 -0.02497671 224.33837891 0 C225.73550377 -0.01673041 225.73550377 -0.01673041 227.16085339 -0.03379881 C231.5039321 0.03229236 233.59326566 0.23462577 237.23971748 2.76907063 C239.5356341 6.17919899 239.81824457 8.03420081 239.87155151 12.12339783 C239.8999518 13.4418806 239.92835209 14.76036337 239.95761299 16.11880016 C239.96353234 17.58030639 239.96876609 19.04181552 239.97338867 20.50332642 C239.99588666 22.05880311 240.02024595 23.61425382 240.04630852 25.16967487 C240.10955503 29.43033563 240.1383475 33.69055444 240.15681744 37.95162249 C240.16919697 40.63654957 240.18764561 43.32137267 240.20774078 46.00625229 C240.29996258 58.84022631 240.31143343 71.67374809 240.30351496 84.50800109 C240.30093363 90.02274478 240.3033437 95.53748705 240.30490112 101.05223083 C240.30670221 110.2722606 240.30436706 119.49228226 240.29956055 128.71231079 C240.29407801 139.35165774 240.29591751 149.99098565 240.30138695 160.63033217 C240.3059253 169.8302391 240.3065664 179.03014031 240.30394828 188.230048 C240.30239508 193.69819567 240.30216632 199.16633435 240.30548477 204.63448143 C240.30837549 209.75087507 240.30636575 214.86724397 240.30059052 219.98363495 C240.29927125 221.85570802 240.29964285 223.72778319 240.30185318 225.59985542 C240.30459639 228.15915293 240.30114545 230.71837166 240.2961731 233.27766418 C240.29840382 234.01256787 240.30063454 234.74747156 240.30293286 235.50464505 C240.25586914 248.03885743 240.25586914 248.03885743 237.16918945 252.57241821 C231.06961126 256.76587822 222.63380063 255.78158381 215.4402771 255.76863098 C214.50239275 255.77089654 213.56450839 255.77316209 212.5982033 255.7754963 C209.47780961 255.78179062 206.35745986 255.78100991 203.23706055 255.78018188 C200.99096114 255.78317611 198.74486226 255.78657925 196.49876404 255.7903595 C190.41430753 255.79917392 184.32986509 255.80153645 178.24540281 255.80217528 C174.44299518 255.80288689 170.64059111 255.80502325 166.83818436 255.8076725 C154.25452148 255.81643887 141.67086658 255.82109328 129.08720128 255.82034203 C128.41010699 255.82030207 127.73301269 255.82026211 127.03540039 255.82022095 C126.35747529 255.82018007 125.6795502 255.82013919 124.98108192 255.82009707 C113.9835736 255.81969022 102.98609945 255.82927234 91.98860101 255.84335931 C80.6825065 255.85772689 69.37642815 255.86444626 58.07032263 255.86376554 C51.72822578 255.86351052 45.38616767 255.86636418 39.04407883 255.87694359 C33.08343926 255.88661621 27.12287558 255.88670946 21.16223335 255.87942696 C18.97531206 255.87838029 16.78838606 255.88074886 14.60147285 255.88678741 C11.61560393 255.89449815 8.62999774 255.8898686 5.64413452 255.88215637 C4.77963633 255.88729994 3.91513814 255.8924435 3.02444303 255.89774293 C-2.92213152 255.86381711 -8.42541211 255.59721694 -13.20581055 251.69741821 C-15.54180076 248.73250755 -15.95581054 246.28812613 -15.95665169 242.63086319 C-15.95925943 241.81409237 -15.96186718 240.99732155 -15.96455395 240.1558001 C-15.96232323 239.25883157 -15.96009251 238.36186303 -15.95779419 237.43771362 C-15.95935418 236.48453806 -15.96091417 235.53136249 -15.96252143 234.54930282 C-15.96652414 231.34117211 -15.96334454 228.13308837 -15.96020508 224.92495728 C-15.96155948 222.63048271 -15.96333963 220.33600836 -15.96551514 218.04153442 C-15.97008589 211.79763414 -15.96830109 205.55375032 -15.96513605 199.30984974 C-15.9626094 192.78146634 -15.96495096 186.25308438 -15.96652222 179.72470093 C-15.96846031 168.05233863 -15.96534561 156.37998385 -15.96026288 144.70762274 C-15.95579919 134.12967323 -15.95656744 123.55173471 -15.96118164 112.9737854 C-15.96653703 100.69093433 -15.96852278 88.40809026 -15.96556938 76.12523818 C-15.96401007 69.6232157 -15.96380328 63.12120077 -15.96710587 56.61917877 C-15.96999532 50.50268807 -15.96798906 44.38621808 -15.96221161 38.26972961 C-15.96088956 36.02476282 -15.96126873 33.77979428 -15.96347427 31.53482819 C-15.96620766 28.46988106 -15.96277773 25.40500027 -15.95779419 22.34005737 C-15.96002491 21.45201172 -15.96225563 20.56396607 -15.96455395 19.64900994 C-15.92550814 7.26331293 -15.92550814 7.26331293 -12.88273621 2.7371006 C-8.56670228 -0.23580619 -5.13139133 -0.06144783 0 0 Z " fill="#EEEDEC" transform="translate(137.830810546875,122.36508178710938)"/>
<path d="M0 0 C1.06591532 3.19774595 1.11066373 5.42826522 1.08886719 8.7878418 C1.08429504 10.0005928 1.0797229 11.21334381 1.07501221 12.46284485 C1.07037209 13.11873407 1.06573196 13.7746233 1.06095123 14.45038795 C1.03627679 18.06372606 1.03049189 21.67712225 1.02148438 25.29052734 C1.01910892 26.0672432 1.01673347 26.84395906 1.01428604 27.64421177 C0.97532191 41.6110232 1.06244139 55.57764465 1.1838913 69.54388618 C1.22400676 74.19504856 1.25595554 78.84599767 1.27099609 83.49731445 C1.2860884 88.09261742 1.3203046 92.68740331 1.36830902 97.28247643 C1.38309552 99.01321647 1.39103944 100.74402953 1.39188385 102.47483253 C1.39423501 104.86376522 1.42112559 107.25121454 1.45410156 109.63989258 C1.4490712 110.34559387 1.44404083 111.05129517 1.43885803 111.77838135 C1.44134975 113.96813435 1.44134975 113.96813435 2 117 C3.92411748 118.85734568 3.92411748 118.85734568 6 120 C6 120.66 6 121.32 6 122 C6.8353125 122.37125 6.8353125 122.37125 7.6875 122.75 C10.42410913 124.22924818 12.67650869 125.93467439 15 128 C15 128.66 15 129.32 15 130 C16.051875 130.37125 16.051875 130.37125 17.125 130.75 C20.39514548 132.17180238 23.141122 133.87246288 26 136 C26 136.66 26 137.32 26 138 C27.051875 138.37125 27.051875 138.37125 28.125 138.75 C31.37462636 140.16288102 34.07482472 142.0083913 37 144 C38.3191582 144.69429379 39.64649406 145.37530495 41 146 C41.598125 145.01 42.19625 144.02 42.8125 143 C43.534375 142.01 44.25625 141.02 45 140 C45.99 140 46.98 140 48 140 C48.25265625 139.31550781 48.5053125 138.63101563 48.765625 137.92578125 C50.19580973 134.53588136 51.93051815 131.37793075 53.75 128.1875 C54.13559082 127.5066333 54.52118164 126.8257666 54.91845703 126.12426758 C59.69617799 117.72210054 64.5882827 109.3856876 69.46875 101.04296875 C72.78632063 95.37090515 76.0850119 89.68809884 79.375 84 C79.84534668 83.18684326 80.31569336 82.37368652 80.80029297 81.53588867 C81.86719823 79.69078684 82.93365675 77.84542669 84 76 C85.485 76.495 85.485 76.495 87 77 C86.94199219 76.1234375 86.88398438 75.246875 86.82421875 74.34375 C87.02205488 70.58046716 87.91154392 68.71913731 89.8125 65.5 C90.35777344 64.55511719 90.90304688 63.61023438 91.46484375 62.63671875 C91.97144531 61.76660156 92.47804688 60.89648438 93 60 C94.0362075 58.01488453 95.02035246 56.01371995 96 54 C99.50898903 55.40212742 100.62803458 56.6265518 102.125 60.0625 C104.35987667 64.81755675 106.87443975 69.30552247 109.5625 73.8125 C113.35574554 80.19392697 117.0803299 86.60919319 120.75 93.0625 C125.07146709 100.65702266 129.45534 108.21224282 133.875 115.75 C139.37065039 125.1300345 144.72032858 134.58428841 150 144.08740234 C153.92008458 151.1276684 157.94253277 158.09606111 162.15722656 164.96459961 C165 169.67815991 165 169.67815991 165 173 C165.66 173 166.32 173 167 173 C166.91612161 157.94447442 166.82099621 142.88905123 166.71247292 127.83368301 C166.66234627 120.84324584 166.61590339 113.8528204 166.578125 106.86230469 C166.54167223 100.11899385 166.49496399 93.37582598 166.44193649 86.63262177 C166.42337086 84.05698629 166.40827098 81.48132348 166.39665604 78.90564728 C166.37983094 75.30447779 166.35080435 71.70360156 166.31884766 68.10253906 C166.31668747 67.0322345 166.31452728 65.96192993 166.31230164 64.85919189 C166.30113815 63.87765137 166.28997467 62.89611084 166.2784729 61.88482666 C166.27294214 61.03308994 166.26741138 60.18135323 166.26171303 59.3038063 C166.0886885 56.60504743 166.0886885 56.60504743 164 53 C181.49 53 198.98 53 217 53 C217 60.26 217 67.52 217 75 C205.12 75.33 193.24 75.66 181 76 C182.32 76.99 183.64 77.98 185 79 C185.35569326 81.85529894 185.46681139 84.31917381 185.390625 87.16796875 C185.38496521 87.96278152 185.37930542 88.7575943 185.37347412 89.57649231 C185.35109004 92.11410866 185.30089262 94.6503108 185.25 97.1875 C185.2299375 98.90818273 185.21168629 100.62888759 185.1953125 102.34960938 C185.15461998 106.56738879 185.07634185 110.78211254 185 115 C192.59 115 200.18 115 208 115 C208 122.26 208 129.52 208 137 C194.635 137.495 194.635 137.495 181 138 C182.32 138.99 183.64 139.98 185 141 C185 160.14 185 179.28 185 199 C136.82 199.33 88.64 199.66 39 200 C38.67 200.66 38.34 201.32 38 202 C37.319375 202.5775 36.63875 203.155 35.9375 203.75 C33.76780325 205.89168856 33.76780325 205.89168856 33.4375 208.9375 C34.2184919 213.18956703 35.58977814 214.34002695 39 217 C50.00165272 224.319558 65.02928581 226.4286029 78 227 C76.92363281 226.82984375 75.84726563 226.6596875 74.73828125 226.484375 C65.56972934 224.98333822 56.78940936 223.09698162 48 220 C47.29230469 219.75378906 46.58460938 219.50757813 45.85546875 219.25390625 C41.48290142 217.56775283 38.43503115 215.09990616 35 212 C35.33 211.01 35.66 210.02 36 209 C36.94875 209.9075 37.8975 210.815 38.875 211.75 C47.99085614 219.40947675 59.84189735 220.55939063 71.20922852 222.58276367 C73 223 73 223 74 224 C76.32152744 224.30523219 78.62201283 224.54964142 80.953125 224.75390625 C82.03146606 224.85193794 82.03146606 224.85193794 83.1315918 224.95195007 C85.50379811 225.16317675 87.87665967 225.36443553 90.25 225.5625 C91.06110229 225.63069946 91.87220459 225.69889893 92.70788574 225.76916504 C108.17440428 227.04502904 123.47941624 227.36773188 139 227 C140.57612061 226.97679687 140.57612061 226.97679687 142.18408203 226.953125 C160.572365 226.67517268 179.6965952 225.37888679 197.0234375 218.734375 C199 218 199 218 201 218 C201 217.34 201 216.68 201 216 C202.670625 215.6596875 202.670625 215.6596875 204.375 215.3125 C208.16038373 214.39376342 208.16038373 214.39376342 209.4375 211.375 C209.623125 210.59125 209.80875 209.8075 210 209 C210.99 209.33 211.98 209.66 213 210 C213.36622895 214.20737439 213.71584777 218.41597104 214.0625 222.625 C214.16626953 223.81480469 214.27003906 225.00460937 214.37695312 226.23046875 C214.47041016 227.38417969 214.56386719 228.53789062 214.66015625 229.7265625 C214.74918213 230.78439941 214.83820801 231.84223633 214.92993164 232.93212891 C215.00207844 236.09100228 214.61805241 238.90771154 214 242 C217.17970029 241.30483572 217.17970029 241.30483572 218.4375 238.5625 C220.1512845 235.75189343 221.07991513 235.27753713 224 234 C225.70921589 232.4587688 225.70921589 232.4587688 227 231 C226.39282787 236.76813523 224.22386401 241.70859168 222 247 C225.41664873 247.02908357 228.8332655 247.04682691 232.25 247.0625 C233.21808594 247.07087891 234.18617188 247.07925781 235.18359375 247.08789062 C236.11816406 247.09111328 237.05273438 247.09433594 238.015625 247.09765625 C238.87446289 247.10289307 239.73330078 247.10812988 240.61816406 247.11352539 C242.88670744 247.00539986 244.82631715 246.63582423 247 246 C248.25296047 241.09136367 248.21576665 236.21202192 248.29663086 231.17895508 C248.31589945 230.18569654 248.33516804 229.19243801 248.35502052 228.16908073 C248.41755458 224.84846852 248.47278133 221.52778344 248.52734375 218.20703125 C248.56907426 215.84047931 248.61081751 213.4739276 248.65257263 211.1073761 C249.11432934 184.02215176 249.32109815 156.93413718 249.51740968 129.84596646 C249.56820385 122.85343167 249.62256091 115.86092562 249.67708123 108.86841905 C249.78842259 94.57897325 249.8957195 80.28949907 250 66 C250.66 66 251.32 66 252 66 C252 56.43 252 46.86 252 37 C252.33 37 252.66 37 253 37 C253.02336373 63.06897764 253.04099627 89.1379537 253.05181217 115.2069397 C253.05696773 127.3113032 253.06399637 139.4156602 253.07543945 151.52001953 C253.08540885 162.07056908 253.09185881 172.62111392 253.09408849 183.17166805 C253.09539176 188.75771099 253.09845338 194.34374044 253.10573006 199.92977905 C253.11252583 205.18934052 253.1146097 210.44888297 253.11310768 215.70844841 C253.11338241 217.63693279 253.1153664 219.56541781 253.11920547 221.49389839 C253.12419829 224.13169764 253.12297772 226.76942558 253.12025452 229.40722656 C253.12462378 230.54539338 253.12462378 230.54539338 253.12908131 231.70655346 C253.09380608 244.39347232 253.09380608 244.39347232 250 248.9375 C243.90042181 253.13096001 235.46461118 252.14666559 228.27108765 252.13371277 C227.33320329 252.13597833 226.39531894 252.13824388 225.42901385 252.14057809 C222.30862015 252.1468724 219.1882704 252.1460917 216.06787109 252.14526367 C213.82177169 252.1482579 211.5756728 252.15166103 209.32957458 252.15544128 C203.24511807 252.16425571 197.16067564 252.16661824 191.07621336 252.16725707 C187.27380573 252.16796868 183.47140165 252.17010504 179.6689949 252.17275429 C167.08533202 252.18152066 154.50167712 252.18617506 141.91801183 252.18542381 C141.24091753 252.18538386 140.56382324 252.1853439 139.86621094 252.18530273 C139.18828584 252.18526185 138.51036075 252.18522097 137.81189246 252.18517885 C126.81438414 252.18477201 115.81690999 252.19435412 104.81941156 252.2084411 C93.51331705 252.22280867 82.2072387 252.22952805 70.90113318 252.22884732 C64.55903632 252.22859231 58.21697822 252.23144596 51.87488937 252.24202538 C45.9142498 252.251698 39.95368613 252.25179125 33.9930439 252.24450874 C31.80612261 252.24346208 29.61919661 252.24583065 27.4322834 252.2518692 C24.44641447 252.25957994 21.46080829 252.25495039 18.47494507 252.24723816 C17.61044688 252.25238172 16.74594868 252.25752529 15.85525358 252.26282471 C9.90867903 252.22889889 4.40539844 251.96229873 -0.375 248.0625 C-2.71099022 245.09758934 -3.125 242.65320792 -3.12584114 238.99594498 C-3.12844889 238.17917416 -3.13105664 237.36240334 -3.13374341 236.52088189 C-3.13151268 235.62391335 -3.12928196 234.72694481 -3.12698364 233.80279541 C-3.12854363 232.84961984 -3.13010362 231.89644428 -3.13171089 230.9143846 C-3.13571359 227.7062539 -3.13253399 224.49817015 -3.12939453 221.29003906 C-3.13074893 218.9955645 -3.13252908 216.70109015 -3.13470459 214.40661621 C-3.13927534 208.16271593 -3.13749055 201.91883211 -3.1343255 195.67493153 C-3.13179885 189.14654813 -3.13414041 182.61816617 -3.13571167 176.08978271 C-3.13764976 164.41742041 -3.13453506 152.74506564 -3.12945233 141.07270452 C-3.12498864 130.49475502 -3.12575689 119.91681649 -3.13037109 109.33886719 C-3.13572648 97.05601612 -3.13771224 84.77317205 -3.13475883 72.49031997 C-3.13319952 65.98829748 -3.13299274 59.48628256 -3.13629532 52.98426056 C-3.13918477 46.86776986 -3.13717851 40.75129987 -3.13140106 34.6348114 C-3.13007901 32.38984461 -3.13045818 30.14487607 -3.13266373 27.89990997 C-3.13539711 24.83496285 -3.13196718 21.77008206 -3.12698364 18.70513916 C-3.12921436 17.81709351 -3.13144509 16.92904786 -3.13374341 16.01409173 C-3.09300979 3.09300979 -3.09300979 3.09300979 0 0 Z " fill="#D4D7D1" transform="translate(125,126)"/>
<path d="M0 0 C17.49 0 34.98 0 53 0 C53 7.26 53 14.52 53 22 C41.12 22.33 29.24 22.66 17 23 C18.98 24.485 18.98 24.485 21 26 C21.35569326 28.85529894 21.46681139 31.31917381 21.390625 34.16796875 C21.38496521 34.96278152 21.37930542 35.7575943 21.37347412 36.57649231 C21.35109004 39.11410866 21.30089262 41.6503108 21.25 44.1875 C21.2299375 45.90818273 21.21168629 47.62888759 21.1953125 49.34960938 C21.15461998 53.56738879 21.07634185 57.78211254 21 62 C28.59 62 36.18 62 44 62 C44 69.26 44 76.52 44 84 C30.635 84.495 30.635 84.495 17 85 C18.32 85.99 19.64 86.98 21 88 C21 107.14 21 126.28 21 146 C-26.85 146 -74.7 146 -124 146 C-121.7505106 139.25153181 -121.7505106 139.25153181 -119.7578125 135.94140625 C-119.33113281 135.22533203 -118.90445313 134.50925781 -118.46484375 133.77148438 C-118.02269531 133.04251953 -117.58054688 132.31355469 -117.125 131.5625 C-116.25221576 130.10570138 -115.37981555 128.64867261 -114.5078125 127.19140625 C-114.08097168 126.48072998 -113.65413086 125.77005371 -113.21435547 125.0378418 C-111.43356941 122.04945795 -109.7141427 119.02687223 -108 116 C-100.89237209 103.50497952 -93.72163534 91.04960595 -86.45751953 78.64477539 C-85.8901709 77.67531982 -85.32282227 76.70586426 -84.73828125 75.70703125 C-84.23337158 74.8456958 -83.72846191 73.98436035 -83.20825195 73.09692383 C-82.4337172 71.75271713 -81.69380051 70.38760102 -81 69 C-76.71274924 70.42908359 -75.44845984 73.60563317 -73.25 77.3125 C-72.61384766 78.32860352 -72.61384766 78.32860352 -71.96484375 79.36523438 C-71.56910156 80.02458984 -71.17335937 80.68394531 -70.765625 81.36328125 C-70.40243164 81.96438721 -70.03923828 82.56549316 -69.66503906 83.18481445 C-68.77695184 85.60879701 -69.08953682 86.58731383 -70 89 C-71.00900347 90.99452531 -72.07229063 92.9618984 -73.16796875 94.91015625 C-73.64391228 95.76147377 -73.64391228 95.76147377 -74.12947083 96.62998962 C-75.14442682 98.44332819 -76.16574031 100.25298799 -77.1875 102.0625 C-78.18997777 103.84779104 -79.19111614 105.63382731 -80.19197083 107.42002869 C-81.11176383 109.0599473 -82.03466335 110.69812242 -82.95776367 112.33618164 C-85.67200861 117.20559871 -88.33049715 122.10591145 -91 127 C-59.98 127 -28.96 127 3 127 C3 125.68 3 124.36 3 123 C-26.04 123 -55.08 123 -85 123 C-78 109 -78 109 -75 105 C-72.89289856 104.51898193 -72.89289856 104.51898193 -70.43676758 104.54589844 C-69.51603958 104.54620056 -68.59531158 104.54650269 -67.64668274 104.54681396 C-66.16061775 104.57778168 -66.16061775 104.57778168 -64.64453125 104.609375 C-63.11937141 104.61786469 -63.11937141 104.61786469 -61.56340027 104.62652588 C-58.31262328 104.64893481 -55.06294441 104.69914058 -51.8125 104.75 C-49.61004195 104.77005911 -47.40756664 104.7883109 -45.20507812 104.8046875 C-39.8030101 104.8488142 -34.40158349 104.91577111 -29 105 C-32.62534222 97.53366402 -36.46221835 90.31696175 -40.8125 83.25 C-44.36557146 77.40335964 -47.87246091 71.54753761 -51.1875 65.5625 C-56.31548669 56.31856438 -61.70248546 47.22472336 -67.0612793 38.11352539 C-67.42208588 37.49990143 -67.78289246 36.88627747 -68.15463257 36.25405884 C-69.14519686 34.56997029 -70.13665562 32.88640796 -71.12817383 31.20288086 C-71.74587646 30.14593018 -72.3635791 29.08897949 -73 28 C-73.37172333 27.38326416 -73.74344666 26.76652832 -74.12643433 26.13110352 C-77.00344097 21.28129908 -77.00344097 21.28129908 -76.96875 18.4453125 C-75.7545691 15.38048491 -74.21994335 12.68753032 -72.5 9.875 C-69.89393108 5.60317592 -69.89393108 5.60317592 -68 1 C-64.49101097 2.40212742 -63.37196542 3.6265518 -61.875 7.0625 C-59.64012333 11.81755675 -57.12556025 16.30552247 -54.4375 20.8125 C-50.64425446 27.19392697 -46.9196701 33.60919319 -43.25 40.0625 C-38.92853291 47.65702266 -34.54466 55.21224282 -30.125 62.75 C-24.62934961 72.1300345 -19.27967142 81.58428841 -14 91.08740234 C-10.07991542 98.1276684 -6.05746723 105.09606111 -1.84277344 111.96459961 C1 116.67815991 1 116.67815991 1 120 C1.66 120 2.32 120 3 120 C2.91612161 104.94447442 2.82099621 89.88905123 2.71247292 74.83368301 C2.66234627 67.84324584 2.61590339 60.8528204 2.578125 53.86230469 C2.54167223 47.11899385 2.49496399 40.37582598 2.44193649 33.63262177 C2.42337086 31.05698629 2.40827098 28.48132348 2.39665604 25.90564728 C2.37983094 22.30447779 2.35080435 18.70360156 2.31884766 15.10253906 C2.31668747 14.0322345 2.31452728 12.96192993 2.31230164 11.85919189 C2.30113815 10.87765137 2.28997467 9.89611084 2.2784729 8.88482666 C2.27294214 8.03308994 2.26741138 7.18135323 2.26171303 6.3038063 C2.0886885 3.60504743 2.0886885 3.60504743 0 0 Z " fill="#2F4158" transform="translate(289,179)"/>
<path d="M0 0 C10.18890966 -0.02329757 20.37781285 -0.04100307 30.56674385 -0.05181217 C35.29922561 -0.05700322 40.03168898 -0.0640312 44.76416016 -0.07543945 C49.34182793 -0.08640391 53.91947815 -0.09230519 58.49715805 -0.09487724 C60.23280996 -0.0967073 61.96846105 -0.10028017 63.70410538 -0.10573006 C73.85813089 -0.13630941 83.87838208 0.09163317 94 1 C94.08878418 1.83200928 94.17756836 2.66401855 94.26904297 3.52124023 C94.63026949 6.88999759 95.00281444 10.25743641 95.375 13.625 C95.50132812 14.81480469 95.62765625 16.00460938 95.7578125 17.23046875 C95.88671875 18.38417969 96.015625 19.53789062 96.1484375 20.7265625 C96.26364746 21.78439941 96.37885742 22.84223633 96.49755859 23.93212891 C97.01918298 27.11712987 97.94775696 29.95464157 99 33 C99.165 34.175625 99.33 35.35125 99.5 36.5625 C99.96576026 39.76460177 100.77213009 42.0386667 102 45 C102.53500327 46.99070986 103.01286678 48.99131582 103.4921875 50.99609375 C104.1813738 53.71572893 105.07360985 56.35317099 106 59 C106.99 58.01 106.99 58.01 108 57 C108.495 59.475 108.495 59.475 109 62 C108.34 62 107.68 62 107 62 C107.28875 62.77085937 107.5775 63.54171875 107.875 64.3359375 C108.431875 65.84027344 108.431875 65.84027344 109 67.375 C109.37125 68.37273437 109.7425 69.37046875 110.125 70.3984375 C111 73 111 73 111 75 C111.66 75 112.32 75 113 75 C113.33 74.34 113.66 73.68 114 73 C114.05607422 74.03060547 114.05607422 74.03060547 114.11328125 75.08203125 C114.17902344 75.98308594 114.24476563 76.88414062 114.3125 77.8125 C114.37050781 78.70582031 114.42851562 79.59914063 114.48828125 80.51953125 C115.07375344 83.35750715 115.91704965 84.09479474 118 86 C118.125 88.625 118.125 88.625 118 91 C118.33 91.33 118.66 91.66 119 92 C120.12752401 102.1865261 120.1377745 112.44803808 120.09765625 122.68359375 C120.09578409 124.11947072 120.09436398 125.55534835 120.09336853 126.9912262 C120.08960604 130.71466939 120.07983181 134.43807166 120.06866455 138.16149902 C120.05831317 141.98331143 120.05384194 145.80513065 120.04882812 149.62695312 C120.03820183 157.08465379 120.02120394 164.54232109 120 172 C117.41334176 169.50927166 115.7368817 167.06517034 113.953125 163.93359375 C113.36281494 162.90331055 112.77250488 161.87302734 112.16430664 160.81152344 C111.53258545 159.6980957 110.90086426 158.58466797 110.25 157.4375 C109.58570752 156.2747779 108.92090434 155.11234744 108.25561523 153.95019531 C106.86816498 151.52568552 105.48294511 149.09992101 104.09912109 146.67333984 C100.77649925 140.85234974 97.41674843 135.05280311 94.0625 129.25 C90.33903835 122.80018789 86.62064122 116.34792479 82.9375 109.875 C79.36097597 103.59656044 75.71035355 97.36221031 72.0625 91.125 C67.25566162 82.9041377 62.50530678 74.6570333 57.8671875 66.33984375 C57.25101563 65.23769531 56.63484375 64.13554687 56 63 C55.65098633 62.35691895 55.30197266 61.71383789 54.94238281 61.05126953 C53.11981869 57.40852135 53.11981869 57.40852135 50 55 C49.89558594 55.72574219 49.79117188 56.45148438 49.68359375 57.19921875 C48.9367261 60.2592422 47.792446 62.19431767 46.0625 64.8125 C43.31200122 69.21197886 41.94133119 72.91681156 41 78 C40.01 78 39.02 78 38 78 C36.68 80.64 35.36 83.28 34 86 C31.84375 86.0234375 31.84375 86.0234375 29 85 C26.8006909 82.43046336 25.17869747 79.55257364 23.5 76.625 C23.01297607 75.79790527 22.52595215 74.97081055 22.02416992 74.11865234 C18.59703974 68.22461165 15.56511255 62.31972523 13 56 C12.36991401 54.5761917 11.73825432 53.15307932 11.10546875 51.73046875 C7.09797299 42.49886572 4.08523404 33.35473587 2 23.5 C1.79246094 22.53425049 1.58492187 21.56850098 1.37109375 20.57348633 C0.38687292 15.54355005 -0.09695334 10.77300755 -0.05078125 5.64257812 C-0.04344971 4.58043091 -0.03611816 3.51828369 -0.02856445 2.4239502 C-0.01913818 1.62404663 -0.00971191 0.82414307 0 0 Z " fill="#F5F3F3" transform="translate(171,125)"/>
<path d="M0 0 C1.06591532 3.19774595 1.11066373 5.42826522 1.08886719 8.7878418 C1.08429504 10.0005928 1.0797229 11.21334381 1.07501221 12.46284485 C1.07037209 13.11873407 1.06573196 13.7746233 1.06095123 14.45038795 C1.03627679 18.06372606 1.03049189 21.67712225 1.02148438 25.29052734 C1.01910892 26.0672432 1.01673347 26.84395906 1.01428604 27.64421177 C0.97532191 41.6110232 1.06244139 55.57764465 1.1838913 69.54388618 C1.22400676 74.19504856 1.25595554 78.84599767 1.27099609 83.49731445 C1.2860884 88.09261742 1.3203046 92.68740331 1.36830902 97.28247643 C1.38309552 99.01321647 1.39103944 100.74402953 1.39188385 102.47483253 C1.39423501 104.86376522 1.42112559 107.25121454 1.45410156 109.63989258 C1.44655602 110.69844452 1.44655602 110.69844452 1.43885803 111.77838135 C1.44134975 113.96813435 1.44134975 113.96813435 2 117 C3.92411748 118.85734568 3.92411748 118.85734568 6 120 C6 120.66 6 121.32 6 122 C6.8353125 122.37125 6.8353125 122.37125 7.6875 122.75 C10.42410913 124.22924818 12.67650869 125.93467439 15 128 C15 128.66 15 129.32 15 130 C16.051875 130.37125 16.051875 130.37125 17.125 130.75 C20.39514548 132.17180238 23.141122 133.87246288 26 136 C26 136.66 26 137.32 26 138 C27.051875 138.37125 27.051875 138.37125 28.125 138.75 C31.37462636 140.16288102 34.07482472 142.0083913 37 144 C38.3191582 144.69429379 39.64649406 145.37530495 41 146 C41.598125 145.01 42.19625 144.02 42.8125 143 C43.534375 142.01 44.25625 141.02 45 140 C45.99 140 46.98 140 48 140 C48.25265625 139.31550781 48.5053125 138.63101563 48.765625 137.92578125 C50.19580973 134.53588136 51.93051815 131.37793075 53.75 128.1875 C54.13559082 127.5066333 54.52118164 126.8257666 54.91845703 126.12426758 C59.69617799 117.72210054 64.5882827 109.3856876 69.46875 101.04296875 C72.78632063 95.37090515 76.0850119 89.68809884 79.375 84 C79.84534668 83.18684326 80.31569336 82.37368652 80.80029297 81.53588867 C81.86719823 79.69078684 82.93365675 77.84542669 84 76 C85.485 76.495 85.485 76.495 87 77 C87.495 75.515 87.495 75.515 88 74 C97.609375 90.81640625 97.609375 90.81640625 98.66215515 92.65882874 C99.37027025 93.89799182 100.07845169 95.137117 100.78669739 96.37620544 C102.575084 99.50521377 104.36232611 102.63486512 106.1472168 105.76586914 C109.66256518 111.93018762 113.19491463 118.08242732 116.8125 124.1875 C121.06115347 131.38024812 125.25437519 138.60399932 129.42114258 145.84448242 C129.85966553 146.6047876 130.29818848 147.36509277 130.75 148.1484375 C131.13671875 148.82052246 131.5234375 149.49260742 131.921875 150.18505859 C132.89474689 151.8228144 133.94333998 153.41500997 135 155 C135 155.99 135 156.98 135 158 C134.443694 157.97699829 133.887388 157.95399658 133.31422424 157.93029785 C127.48936568 157.70546663 121.67001612 157.59479964 115.84106445 157.54833984 C113.6708502 157.51634175 111.5008527 157.45586834 109.33227539 157.36572266 C106.1982446 157.24050535 103.0776497 157.2201283 99.94140625 157.21875 C98.50179283 157.12768982 98.50179283 157.12768982 97.03309631 157.03479004 C93.75131594 156.9518513 93.75131594 156.9518513 89 159 C86.03 164.28 83.06 169.56 80 175 C108.71 175.33 137.42 175.66 167 176 C167 177.32 167 178.64 167 180 C135.98 180 104.96 180 73 180 C74.48789591 175.53631228 75.82458276 172.22948153 78.08203125 168.2265625 C78.68466797 167.1540625 79.28730469 166.0815625 79.90820312 164.9765625 C80.85083008 163.31753906 80.85083008 163.31753906 81.8125 161.625 C82.42931641 160.52671875 83.04613281 159.4284375 83.68164062 158.296875 C86.33756534 153.5890297 89.00257446 148.95229078 92.01171875 144.4609375 C94.25486615 141.36756511 94.25486615 141.36756511 93.73535156 138.99731445 C92.53814139 135.74552945 90.79164072 132.80253625 89.0625 129.8125 C88.70220703 129.17119141 88.34191406 128.52988281 87.97070312 127.86914062 C86.09792373 124.33812094 86.09792373 124.33812094 83 122 C82.79246094 122.77988281 82.58492188 123.55976563 82.37109375 124.36328125 C80.49753425 129.33275103 77.80854895 133.65486022 75.0625 138.1875 C73.88599656 140.15321378 72.7102287 142.11936797 71.53515625 144.0859375 C70.9436377 145.07303711 70.35211914 146.06013672 69.74267578 147.07714844 C67.12492294 151.46769719 64.55781252 155.88683765 62 160.3125 C61.56824463 161.05717529 61.13648926 161.80185059 60.69165039 162.5690918 C58.61029954 166.16901439 56.55899408 169.78277522 54.546875 173.421875 C51.84758716 178.29928537 49.05381439 183.11962488 46.25 187.9375 C45.27550528 189.61296939 44.30152102 191.28873581 43.328125 192.96484375 C42.9043457 193.6930835 42.48056641 194.42132324 42.04394531 195.17163086 C41.3266594 196.42788769 40.64694363 197.70611274 40 199 C40.99 199.33 41.98 199.66 43 200 C41.68 200 40.36 200 39 200 C38.67 200.66 38.34 201.32 38 202 C37.319375 202.5775 36.63875 203.155 35.9375 203.75 C33.70769094 205.90422177 33.70769094 205.90422177 33.6875 209.125 C33.82471926 211.93939173 33.82471926 211.93939173 35 214 C30.70235528 214.36836955 28.53987145 213.39180503 25 211 C24.34 210.67 23.68 210.34 23 210 C23 209.34 23 208.68 23 208 C21.70449219 207.8453125 21.70449219 207.8453125 20.3828125 207.6875 C16.76702166 206.95265105 14.12404835 205.728394 10.875 204 C6.12758577 201.482334 6.12758577 201.482334 1 200 C1 199.34 1 198.68 1 198 C0.34 198 -0.32 198 -1 198 C-1.02319817 190.26333281 -1.04095318 182.52666924 -1.05181217 174.78997517 C-1.05702465 171.19729189 -1.06409257 167.60463245 -1.07543945 164.01196289 C-1.08632649 160.54307509 -1.09228916 157.07421019 -1.09487724 153.60530663 C-1.09761664 151.64167398 -1.10541944 149.67805052 -1.11329651 147.71443176 C-1.11337204 146.5135643 -1.11344757 145.31269684 -1.11352539 144.07543945 C-1.115746 143.02064896 -1.11796661 141.96585846 -1.12025452 140.87910461 C-1.00568518 138.13611312 -0.57430223 135.67765739 0 133 C0.11659115 130.48108884 0.17497976 127.95907692 0.1875 125.4375 C0.20167969 124.13683594 0.21585937 122.83617187 0.23046875 121.49609375 C0.24528319 118.15784651 0.24528319 118.15784651 -0.99853134 116.0764637 C-2.17571939 113.63566015 -2.25148277 111.98111612 -2.25396729 109.28048706 C-2.25960693 108.33549347 -2.26524658 107.39049988 -2.27105713 106.41687012 C-2.26700867 105.3871106 -2.26296021 104.35735107 -2.25878906 103.29638672 C-2.2622937 102.2066153 -2.26579834 101.11684387 -2.26940918 99.99404907 C-2.27821742 96.38919724 -2.27238124 92.78454135 -2.265625 89.1796875 C-2.26697171 86.67912763 -2.26891229 84.17856801 -2.27142334 81.67800903 C-2.27437321 76.43749994 -2.27027092 71.19704197 -2.26074219 65.95654297 C-2.24984684 59.89436008 -2.25339222 53.83231161 -2.264395 47.77013195 C-2.27455444 41.939534 -2.27349247 36.10898726 -2.26763153 30.27838516 C-2.26629387 27.79597073 -2.26794679 25.31355288 -2.27259064 22.83114243 C-2.27764659 19.36894264 -2.26995915 15.90700443 -2.25878906 12.44482422 C-2.26283752 11.41101624 -2.26688599 10.37720825 -2.27105713 9.31207275 C-2.26541748 8.37271881 -2.25977783 7.43336487 -2.25396729 6.46554565 C-2.25321323 5.646658 -2.25245918 4.82777035 -2.25168228 3.98406792 C-2 2 -2 2 0 0 Z " fill="#DBDBD7" transform="translate(125,126)"/>
<path d="M0 0 C12.71264368 3.24137931 12.71264368 3.24137931 18 6 C18.33 6.99 18.66 7.98 19 9 C21.01508358 9.73323796 21.01508358 9.73323796 23 10 C23 10.66 23 11.32 23 12 C23.66 12 24.32 12 25 12 C23.53571429 18.58928571 23.53571429 18.58928571 21.125 20.4375 C19 21 19 21 15 21 C15 21.66 15 22.32 15 23 C-4.59694062 31.41840407 -25.92714188 32.68977237 -47 33 C-48.08812988 33.02578125 -49.17625977 33.0515625 -50.29736328 33.078125 C-65.4520758 33.42696028 -80.40345622 32.86311852 -95.5 31.625 C-96.29047729 31.56187622 -97.08095459 31.49875244 -97.89538574 31.43371582 C-100.15004052 31.24995787 -102.40316181 31.05354574 -104.65625 30.8515625 C-105.95369141 30.73635254 -107.25113281 30.62114258 -108.58789062 30.50244141 C-111.73567215 30.03892292 -114.10672983 29.26395314 -117 28 C-119.52122039 27.52226602 -122.03002606 27.09015276 -124.5625 26.6875 C-134.00797894 25.03679166 -143.7627381 22.79657737 -150 15 C-148.577423 18.43789441 -147.12395634 19.99943683 -144 22 C-141.56227266 22.93673217 -139.17272541 23.78171065 -136.6875 24.5625 C-135.7294043 24.87477539 -135.7294043 24.87477539 -134.75195312 25.19335938 C-132.83926634 25.81154284 -130.92106975 26.4084412 -129 27 C-127.89140625 27.34675781 -126.7828125 27.69351562 -125.640625 28.05078125 C-121.14721725 29.22234572 -116.65149597 29.94101277 -112.0625 30.625 C-111.18787109 30.7590625 -110.31324219 30.893125 -109.41210938 31.03125 C-107.27535066 31.35818576 -105.13775701 31.67965679 -103 32 C-103 32.33 -103 32.66 -103 33 C-119.45253476 32.55170205 -136.21398575 30.80721139 -150 21 C-152.22830795 18.50333668 -152.93278076 17.39491303 -153.5 14.0625 C-152.82394046 9.92163534 -151.23612616 8.58890092 -148 6 C-144.20646474 4.14259947 -141.17330738 3.75211008 -136.96989441 3.75949097 C-135.75979706 3.75674164 -134.54969971 3.75399231 -133.30293274 3.75115967 C-131.32416389 3.7619455 -131.32416389 3.7619455 -129.30541992 3.77294922 C-127.89583342 3.77351364 -126.48624632 3.77319616 -125.07666016 3.77206421 C-121.25677844 3.77149091 -117.43702259 3.78324148 -113.6171701 3.79721212 C-109.62266031 3.80972331 -105.62814757 3.81089029 -101.63362122 3.81326294 C-94.07245091 3.81947656 -86.51133852 3.8358858 -78.9501937 3.85596192 C-70.34081802 3.87832457 -61.73143956 3.88931527 -53.12204206 3.89935279 C-35.41466189 3.92025213 -17.7073356 3.95542583 0 4 C0 2.68 0 1.36 0 0 Z " fill="#FAF8F9" transform="translate(311,321)"/>
<path d="M0 0 C3.30035242 3.09067608 5.19359492 6.7416565 7.3125 10.6875 C11.43613094 18.24320677 15.70635337 25.7010289 20.0625 33.125 C24.40200962 40.52611971 28.69182434 47.94703045 32.859375 55.44628906 C35.85764874 60.81535691 39.02111384 66.0790423 42.2590332 71.30688477 C45 75.78623553 45 75.78623553 45 78 C37.74 78 30.48 78 23 78 C21.68 75.36 20.36 72.72 19 70 C18.16748031 68.48490731 17.32028846 66.97763736 16.44921875 65.484375 C16.00102783 64.71327393 15.55283691 63.94217285 15.09106445 63.14770508 C14.62788818 62.3564624 14.16471191 61.56521973 13.6875 60.75 C13.20692139 59.92459717 12.72634277 59.09919434 12.23120117 58.2487793 C10.82301994 55.83121678 9.41172548 53.41549404 8 51 C7.24194212 49.69936173 6.48410544 48.3985945 5.7265625 47.09765625 C4.15316316 44.39718922 2.57780908 41.69789198 1 39 C-1.77681804 42.32586813 -4.0525968 45.63406835 -6.13671875 49.4296875 C-6.70914307 50.46432129 -7.28156738 51.49895508 -7.87133789 52.56494141 C-8.47067139 53.65726074 -9.07000488 54.74958008 -9.6875 55.875 C-17.51222669 70.00121573 -17.51222669 70.00121573 -21.5625 76.625 C-27.11361242 85.72141588 -32.27238276 95.04254364 -37.49462891 104.33007812 C-40.17517783 109.08429204 -42.89171675 113.81771678 -45.609375 118.55078125 C-46.4406488 120.01485055 -47.24707038 121.49414077 -48 123 C-55.26 123 -62.52 123 -70 123 C-66.08843987 113.22109967 -60.45052519 104.25289319 -55.125 95.1875 C-53.8797647 93.06015545 -52.6349698 90.93255305 -51.390625 88.8046875 C-50.80087891 87.79631836 -50.21113281 86.78794922 -49.60351562 85.74902344 C-46.72917407 80.8213307 -43.90261466 75.86698675 -41.08398438 70.90722656 C-34.79514383 59.84226657 -28.49565932 48.78626466 -22.01586914 37.83178711 C-17.31141244 29.86370134 -12.70346641 21.83976116 -8.08862305 13.81958008 C-7.472854 12.7498999 -6.85708496 11.68021973 -6.22265625 10.578125 C-5.39906616 9.14581543 -5.39906616 9.14581543 -4.55883789 7.68457031 C-3.06286323 5.10826062 -1.53949984 2.55049307 0 0 Z " fill="#304158" transform="translate(209,202)"/>
<path d="M0 0 C4.26108215 4.80923107 7.14919069 10.35127484 10.25 15.9375 C11.417775 18.02224396 12.58574299 20.10687982 13.75390625 22.19140625 C14.31480957 23.19574707 14.87571289 24.20008789 15.45361328 25.23486328 C20.53807775 34.32653435 25.76567867 43.33282551 31.0612793 52.30273438 C34.88949748 58.79268582 38.66286029 65.31381323 42.42114258 71.84448242 C42.85966553 72.6047876 43.29818848 73.36509277 43.75 74.1484375 C44.13671875 74.82052246 44.5234375 75.49260742 44.921875 76.18505859 C45.89474689 77.8228144 46.94333998 79.41500997 48 81 C48 81.99 48 82.98 48 84 C47.443694 83.97699829 46.887388 83.95399658 46.31422424 83.93029785 C40.48936568 83.70546663 34.67001612 83.59479964 28.84106445 83.54833984 C26.6708502 83.51634175 24.5008527 83.45586834 22.33227539 83.36572266 C19.1982446 83.24050535 16.0776497 83.2201283 12.94140625 83.21875 C11.98166397 83.15804321 11.02192169 83.09733643 10.03309631 83.03479004 C6.75131594 82.9518513 6.75131594 82.9518513 2 85 C-0.97 90.28 -3.94 95.56 -7 101 C21.71 101.33 50.42 101.66 80 102 C80 103.32 80 104.64 80 106 C48.98 106 17.96 106 -14 106 C-12.51210409 101.53631228 -11.17541724 98.22948153 -8.91796875 94.2265625 C-8.31533203 93.1540625 -7.71269531 92.0815625 -7.09179688 90.9765625 C-6.14916992 89.31753906 -6.14916992 89.31753906 -5.1875 87.625 C-4.57068359 86.52671875 -3.95386719 85.4284375 -3.31835938 84.296875 C-0.66243466 79.5890297 2.00257446 74.95229078 5.01171875 70.4609375 C7.25486615 67.36756511 7.25486615 67.36756511 6.73535156 64.99731445 C5.53814139 61.74552945 3.79164072 58.80253625 2.0625 55.8125 C1.70220703 55.17119141 1.34191406 54.52988281 0.97070312 53.86914062 C-0.90207627 50.33812094 -0.90207627 50.33812094 -4 48 C-4.20753906 48.77988281 -4.41507813 49.55976563 -4.62890625 50.36328125 C-6.50246575 55.33275103 -9.19145105 59.65486022 -11.9375 64.1875 C-13.11400344 66.15321378 -14.2897713 68.11936797 -15.46484375 70.0859375 C-16.35212158 71.56658691 -16.35212158 71.56658691 -17.25732422 73.07714844 C-19.87507706 77.46769719 -22.44218748 81.88683765 -25 86.3125 C-25.43175537 87.05717529 -25.86351074 87.80185059 -26.30834961 88.5690918 C-28.82021138 92.91362983 -31.27486707 97.28662851 -33.70556641 101.67700195 C-35.99500096 105.7856345 -38.33850493 109.86271263 -40.6875 113.9375 C-41.17283203 114.78634766 -41.65816406 115.63519531 -42.15820312 116.50976562 C-42.62548828 117.31994141 -43.09277344 118.13011719 -43.57421875 118.96484375 C-44.20203247 120.05720337 -44.20203247 120.05720337 -44.8425293 121.17163086 C-46 123 -46 123 -48 125 C-48 124.01 -48 123.02 -48 122 C-48.66 121.67 -49.32 121.34 -50 121 C-34.74301671 93.76089094 -19.14911125 66.7209059 -3 40 C-0.14604971 42.53522129 1.52074961 45.39360261 3.3984375 48.69921875 C4.04296875 49.82650391 4.6875 50.95378906 5.3515625 52.11523438 C6.02630879 53.30583824 6.70078623 54.4965945 7.375 55.6875 C8.69300776 58.00523203 10.01422673 60.32109201 11.3359375 62.63671875 C11.96081055 63.73419434 12.58568359 64.83166992 13.22949219 65.96240234 C14.75020234 68.57143099 16.33254297 71.11246311 17.9765625 73.64453125 C20 77 20 77 20 80 C27.26 80 34.52 80 42 80 C33.61595618 65.26330319 33.61595618 65.26330319 25.0625 50.625 C20.50246814 42.92319925 16.08375026 35.14408908 11.70678711 27.33691406 C9.30696684 23.05889539 6.89944909 18.79425786 4.359375 14.59765625 C3.97604004 13.95723389 3.59270508 13.31681152 3.19775391 12.65698242 C2.20761923 11.01224119 1.20214443 9.37676079 0.1953125 7.7421875 C-1.1684114 4.61364443 -1.04231925 3.19722645 0 0 Z " fill="#D5DDE5" transform="translate(212,200)"/>
<path d="M0 0 C0.33 0 0.66 0 1 0 C1.00808685 1.30656555 1.01617371 2.6131311 1.02450562 3.95928955 C1.10192528 16.26082892 1.18965405 28.56225712 1.28752708 40.86365128 C1.33751419 47.18821257 1.38384413 53.51275696 1.421875 59.83740234 C1.45869712 65.93881518 1.50504891 72.04008743 1.55806351 78.14138031 C1.57662377 80.4713978 1.59172566 82.80144543 1.60334396 85.13150787 C1.62017828 88.39022782 1.64920699 91.64862466 1.68115234 94.90722656 C1.68331253 95.874673 1.68547272 96.84211945 1.68769836 97.83888245 C1.69886185 98.72786728 1.71002533 99.61685211 1.7215271 100.53277588 C1.72705786 101.30339481 1.73258862 102.07401375 1.73828697 102.86798477 C2.03426574 105.27914194 2.89661466 106.85376073 4 109 C4.23046875 112.49609375 4.23046875 112.49609375 4.1875 116.4375 C4.18105469 117.73558594 4.17460938 119.03367187 4.16796875 120.37109375 C4 124 4 124 3.50233459 126.34709167 C2.94308224 129.30059167 2.83897094 132.0698293 2.79467773 135.07543945 C2.77473251 136.27630692 2.75478729 137.47717438 2.73423767 138.71443176 C2.71752518 140.00105209 2.70081268 141.28767242 2.68359375 142.61328125 C2.66300365 143.95135612 2.64200665 145.28942479 2.62062073 146.62748718 C2.56561225 150.13728794 2.51611006 153.64714532 2.46777344 157.15704346 C2.41740272 160.74341835 2.3617982 164.32971173 2.30664062 167.91601562 C2.19931897 174.9439396 2.09781707 181.97193679 2 189 C2.66 189 3.32 189 4 189 C4 189.66 4 190.32 4 191 C4.66 191.33 5.32 191.66 6 192 C5.835 192.7425 5.67 193.485 5.5 194.25 C4.88074304 197.19006578 4.88074304 197.19006578 5 201 C4.983325 202.85336182 4.96653762 204.70672285 4.94869995 206.56007385 C4.922023 209.59445886 4.9057509 212.62887025 4.89013672 215.66333008 C4.88003411 217.26459355 4.86635406 218.8658384 4.84912109 220.46704102 C4.82489133 222.78145846 4.81352749 225.09563527 4.8046875 227.41015625 C4.79436493 228.12583267 4.78404236 228.84150909 4.77340698 229.57887268 C4.77256801 233.28641244 4.88560953 234.8284143 7 238 C8.91456373 238.50751515 8.91456373 238.50751515 11.16226196 238.50952148 C12.036359 238.54473404 12.91045605 238.57994659 13.81104088 238.6162262 C14.77525774 238.63845749 15.7394746 238.66068878 16.73291016 238.68359375 C18.26204009 238.73343666 18.26204009 238.73343666 19.82206154 238.7842865 C32.60496696 239.15363431 45.39394471 239.110065 58.1807704 239.06846237 C61.77721532 239.05821548 65.37366685 239.05491848 68.97012329 239.05102539 C78.86615531 239.03914044 88.76216002 239.01734932 98.65817261 238.99479675 C109.86325465 238.96930228 121.06832949 238.94739433 132.2734375 238.9375 C132.99881179 238.93685799 133.72418608 238.93621597 134.4715414 238.9355545 C154.56037996 238.92037285 174.64086406 239.03807801 194.7265625 239.4375 C195.77262035 239.45714813 196.81867821 239.47679626 197.89643478 239.49703979 C200.77569664 239.55307919 203.65466839 239.61649608 206.53369141 239.68359375 C207.3738744 239.70031128 208.21405739 239.71702881 209.07970047 239.73425293 C214.76734154 239.88367077 214.76734154 239.88367077 217 241 C217.28875 240.195625 217.5775 239.39125 217.875 238.5625 C219 236 219 236 221 235 C221.33 236.65 221.66 238.3 222 240 C222.77714355 239.98952637 223.55428711 239.97905273 224.35498047 239.96826172 C227.861621 239.92679718 231.36821006 239.90070422 234.875 239.875 C236.09832031 239.85824219 237.32164062 239.84148437 238.58203125 239.82421875 C239.74863281 239.81777344 240.91523438 239.81132812 242.1171875 239.8046875 C243.19597168 239.79421387 244.27475586 239.78374023 245.38623047 239.77294922 C248 240 248 240 250 242 C243.71555923 242.79387109 237.6013292 243.14511115 231.27108765 243.13371277 C230.33320329 243.13597833 229.39531894 243.13824388 228.42901385 243.14057809 C225.30862015 243.1468724 222.1882704 243.1460917 219.06787109 243.14526367 C216.82177169 243.1482579 214.5756728 243.15166103 212.32957458 243.15544128 C206.24511807 243.16425571 200.16067564 243.16661824 194.07621336 243.16725707 C190.27380573 243.16796868 186.47140165 243.17010504 182.6689949 243.17275429 C170.08533202 243.18152066 157.50167712 243.18617506 144.91801183 243.18542381 C144.24091753 243.18538386 143.56382324 243.1853439 142.86621094 243.18530273 C142.18828584 243.18526185 141.51036075 243.18522097 140.81189246 243.18517885 C129.81438414 243.18477201 118.81690999 243.19435412 107.81941156 243.2084411 C96.51331705 243.22280867 85.2072387 243.22952805 73.90113318 243.22884732 C67.55903632 243.22859231 61.21697822 243.23144596 54.87488937 243.24202538 C48.9142498 243.251698 42.95368613 243.25179125 36.9930439 243.24450874 C34.80612261 243.24346208 32.61919661 243.24583065 30.4322834 243.2518692 C27.44641447 243.25957994 24.46080829 243.25495039 21.47494507 243.24723816 C20.61044688 243.25238172 19.74594868 243.25752529 18.85525358 243.26282471 C12.90867903 243.22889889 7.40539844 242.96229873 2.625 239.0625 C0.2831225 236.09011702 -0.12500927 233.64232514 -0.12304783 229.97639179 C-0.12503888 229.15530408 -0.12702993 228.33421637 -0.12908131 227.48824722 C-0.12616847 226.58650384 -0.12325563 225.68476046 -0.12025452 224.75569153 C-0.12110894 223.797577 -0.12196337 222.83946247 -0.12284368 221.85231417 C-0.12449652 218.62784238 -0.11898028 215.40342211 -0.11352539 212.17895508 C-0.11324345 209.87312318 -0.11340139 207.56729119 -0.1139679 205.26145935 C-0.1142556 198.98910194 -0.10836314 192.71676354 -0.10139394 186.44441056 C-0.095156 179.89406826 -0.09455625 173.34372555 -0.09336853 166.79338074 C-0.09077701 155.79494903 -0.08435799 144.796524 -0.07543945 133.7980957 C-0.06626232 122.4689945 -0.05918296 111.13989519 -0.05493164 99.81079102 C-0.05466892 99.11262222 -0.05440619 98.41445343 -0.05413551 97.695128 C-0.05283048 94.19266724 -0.05156677 90.69020647 -0.05032361 87.18774569 C-0.03995463 58.12515924 -0.02226521 29.06257972 0 0 Z " fill="#9AC897" transform="translate(122,135)"/>
<path d="M0 0 C9.24 0 18.48 0 28 0 C28 0.33 28 0.66 28 1 C21.73 1 15.46 1 9 1 C9.5053125 2.38574219 10.010625 3.77148438 10.53125 5.19921875 C11.18791407 7.02849724 11.84414124 8.85793262 12.5 10.6875 C12.83386719 11.59951172 13.16773438 12.51152344 13.51171875 13.45117188 C13.98544922 14.78051758 13.98544922 14.78051758 14.46875 16.13671875 C14.76201172 16.94842529 15.05527344 17.76013184 15.35742188 18.59643555 C16.04326336 21.16182665 16.11519796 23.35661819 16 26 C16.66 26 17.32 26 18 26 C18.09796875 26.71542969 18.1959375 27.43085938 18.296875 28.16796875 C19.98266718 39.40173907 23.1761846 49.73338403 28 60 C28.67834587 61.66194738 29.35199575 63.32598903 30 65 C26.10399555 66.29866815 24.99227984 65.3601272 21.3125 63.6875 C16.55050229 61.60448764 12.0768614 60.07395145 7 59 C6.34 59.99 5.68 60.98 5 62 C4.99635437 61.28225403 4.99270874 60.56450806 4.98895264 59.82501221 C4.95106538 53.05658066 4.89420452 46.28854493 4.81609726 39.52046585 C4.77660949 36.04096863 4.7444279 32.56172495 4.72900391 29.08203125 C4.71094453 25.08031624 4.66100019 21.07954876 4.609375 17.078125 C4.60814636 15.83009094 4.60691772 14.58205688 4.60565186 13.29620361 C4.58593323 12.13530212 4.5662146 10.97440063 4.54589844 9.77832031 C4.53701599 8.75683899 4.52813354 7.73535767 4.51898193 6.68292236 C4.14298991 3.39639693 4.14298991 3.39639693 0 0 Z " fill="#DCDAD9" transform="translate(305,263)"/>
<path d="M0 0 C0.46148437 0.38671875 0.92296875 0.7734375 1.3984375 1.171875 C11.81489477 9.48857211 23.3872131 11.30045836 36.20922852 13.58276367 C38 14 38 14 39 15 C41.32152744 15.30523219 43.62201283 15.54964142 45.953125 15.75390625 C46.67201904 15.81926071 47.39091309 15.88461517 48.1315918 15.95195007 C50.50379811 16.16317675 52.87665967 16.36443553 55.25 16.5625 C56.06110229 16.63069946 56.87220459 16.69889893 57.70788574 16.76916504 C73.17440428 18.04502904 88.47941624 18.36773188 104 18 C105.57612061 17.97679687 105.57612061 17.97679687 107.18408203 17.953125 C125.572365 17.67517268 144.6965952 16.37888679 162.0234375 9.734375 C164 9 164 9 166 9 C166 8.34 166 7.68 166 7 C166.83144531 6.69255859 166.83144531 6.69255859 167.6796875 6.37890625 C168.40414062 6.10949219 169.12859375 5.84007812 169.875 5.5625 C170.59429687 5.29566406 171.31359375 5.02882813 172.0546875 4.75390625 C174.03648845 4.02083146 174.03648845 4.02083146 176 3 C176.375 5.1875 176.375 5.1875 176 8 C169.10535163 16.3141348 155.54730772 17.20369746 145.546875 19.38671875 C143.02819611 19.89198728 143.02819611 19.89198728 141 21 C138.12141452 21.21020097 135.25740276 21.3754802 132.375 21.5 C130.79935073 21.57008654 129.22382394 21.64298515 127.6484375 21.71875 C126.94895996 21.74904297 126.24948242 21.77933594 125.52880859 21.81054688 C123.43045085 21.96775151 121.33985256 22.22476542 119.25463867 22.50708008 C114.91898028 23.06314879 110.64441038 23.16108934 106.27734375 23.16796875 C105.46207718 23.17206757 104.64681061 23.17616638 103.80683899 23.1803894 C101.18368241 23.18989151 98.5606712 23.18992565 95.9375 23.1875 C95.04615356 23.18789276 94.15480713 23.18828552 93.2364502 23.18869019 C59.88771478 23.1710529 59.88771478 23.1710529 48 20 C48 19.34 48 18.68 48 18 C47.00033203 17.92652344 47.00033203 17.92652344 45.98046875 17.8515625 C30.52510844 16.59784096 11.56620526 14.28410269 0 3 C0 2.01 0 1.02 0 0 Z " fill="#EFEEEC" transform="translate(160,335)"/>
<path d="M0 0 C0.33 0 0.66 0 1 0 C1.00808685 1.30656555 1.01617371 2.6131311 1.02450562 3.95928955 C1.10192528 16.26082892 1.18965405 28.56225712 1.28752708 40.86365128 C1.33751419 47.18821257 1.38384413 53.51275696 1.421875 59.83740234 C1.45869712 65.93881518 1.50504891 72.04008743 1.55806351 78.14138031 C1.57662377 80.4713978 1.59172566 82.80144543 1.60334396 85.13150787 C1.62017828 88.39022782 1.64920699 91.64862466 1.68115234 94.90722656 C1.68331253 95.874673 1.68547272 96.84211945 1.68769836 97.83888245 C1.69886185 98.72786728 1.71002533 99.61685211 1.7215271 100.53277588 C1.72705786 101.30339481 1.73258862 102.07401375 1.73828697 102.86798477 C2.03426574 105.27914194 2.89661466 106.85376073 4 109 C4.23046875 112.49609375 4.23046875 112.49609375 4.1875 116.4375 C4.18105469 117.73558594 4.17460938 119.03367187 4.16796875 120.37109375 C4 124 4 124 3.50233459 126.34709167 C2.94308224 129.30059167 2.83897094 132.0698293 2.79467773 135.07543945 C2.77473251 136.27630692 2.75478729 137.47717438 2.73423767 138.71443176 C2.71752518 140.00105209 2.70081268 141.28767242 2.68359375 142.61328125 C2.66300365 143.95135612 2.64200665 145.28942479 2.62062073 146.62748718 C2.56561225 150.13728794 2.51611006 153.64714532 2.46777344 157.15704346 C2.41740272 160.74341835 2.3617982 164.32971173 2.30664062 167.91601562 C2.19931897 174.9439396 2.09781707 181.97193679 2 189 C2.66 189 3.32 189 4 189 C4 189.66 4 190.32 4 191 C4.66 191.33 5.32 191.66 6 192 C5.835 192.7425 5.67 193.485 5.5 194.25 C4.88074304 197.19006578 4.88074304 197.19006578 5 201 C4.99166251 202.85335892 4.98326884 204.70671764 4.97434998 206.56007385 C4.96101139 209.59448416 4.95287537 212.62890106 4.94506836 215.66333008 C4.94001712 217.26457368 4.93317717 218.86581263 4.92456055 220.46704102 C4.91244584 222.78142419 4.90676353 225.09574719 4.90234375 227.41015625 C4.89718246 228.12583267 4.89202118 228.84150909 4.88670349 229.57887268 C4.886354 232.66778824 5.01499646 235.04498937 6 238 C5.505 238.99 5.505 238.99 5 240 C4.34 240 3.68 240 3 240 C-0.27493265 234.68084328 -0.41990884 230.43908711 -0.36076355 224.39492798 C-0.36332682 223.43425018 -0.3658901 222.47357238 -0.36853105 221.48378313 C-0.37346787 218.26847702 -0.35697737 215.05364167 -0.34057617 211.83837891 C-0.33972988 209.53210461 -0.34020508 207.2258295 -0.34190369 204.91955566 C-0.34276497 198.65970928 -0.32511737 192.40003509 -0.30418181 186.14022875 C-0.28543741 179.59791974 -0.28366633 173.05560686 -0.28010559 166.51327515 C-0.2723382 155.53274548 -0.2530955 144.5522762 -0.22631836 133.57177734 C-0.19876986 122.2631868 -0.17754016 110.95461343 -0.16479492 99.64599609 C-0.16400675 98.94861547 -0.16321858 98.25123485 -0.16240653 97.53272147 C-0.15849134 94.03407272 -0.15470023 90.53542384 -0.15097082 87.03677487 C-0.11988444 58.0244755 -0.06683354 29.0122386 0 0 Z " fill="#65A163" transform="translate(122,135)"/>
<path d="M0 0 C0.99 0.66 1.98 1.32 3 2 C2.67 3.32 2.34 4.64 2 6 C30.71 6.33 59.42 6.66 89 7 C89 8.32 89 9.64 89 11 C57.98 11 26.96 11 -5 11 C-3.53867783 6.61603349 -2.416361 3.73437609 0 0 Z " fill="#DADDE7" transform="translate(203,295)"/>
<path d="M0 0 C30.99901426 -0.11403398 61.99797313 -0.20253329 92.9971473 -0.25532665 C96.65589477 -0.26158027 100.31464182 -0.26805187 103.97338867 -0.2746582 C104.70178712 -0.27596976 105.43018558 -0.27728131 106.18065671 -0.2786326 C117.97875429 -0.3003962 129.7767302 -0.33982292 141.57475557 -0.38576398 C153.67833495 -0.43250219 165.78185055 -0.46028979 177.88551646 -0.47044247 C185.3557293 -0.47730716 192.82559825 -0.49899731 200.29570524 -0.53958233 C206.02135995 -0.56910739 211.74679373 -0.5722808 217.47250938 -0.56553841 C219.82315186 -0.56691691 222.17380703 -0.57690168 224.5243721 -0.59602737 C227.72857951 -0.62082569 230.93130364 -0.61495248 234.13554382 -0.60127258 C235.53778459 -0.62311889 235.53778459 -0.62311889 236.96835345 -0.64540654 C241.47370266 -0.5932474 243.39477767 -0.46156969 247.07894897 2.34814453 C249.45801106 5.63224721 249.60737259 7.41241893 249.56762695 11.44262695 C249.5672493 12.72357742 249.56687164 14.00452789 249.56648254 15.32429504 C249.54095309 16.71230044 249.51487318 18.1002958 249.48828125 19.48828125 C249.47894881 20.91601827 249.47183473 22.34377136 249.46684265 23.77153015 C249.44780601 27.51857168 249.39873633 31.26463493 249.34332275 35.0112915 C249.29205685 38.83877327 249.2693131 42.66641405 249.24414062 46.49414062 C249.19061232 53.99653841 249.10534252 61.49813182 249 69 C248.67 69 248.34 69 248 69 C247.99413376 68.21517242 247.98826752 67.43034485 247.98222351 66.62173462 C247.92438075 59.23463653 247.85235351 51.84787901 247.76428509 44.46108437 C247.71950846 40.66320532 247.68026895 36.86543534 247.65356445 33.06738281 C247.62760345 29.40377011 247.58725362 25.74057554 247.53681374 22.07722092 C247.52009592 20.67780117 247.50861231 19.27830901 247.50238609 17.87880325 C247.49279916 15.92250442 247.46307423 13.96633531 247.43237305 12.01025391 C247.42126999 10.8955069 247.41016693 9.78075989 247.39872742 8.63223267 C247.26714737 7.76359589 247.13556732 6.89495911 247 6 C246.01 5.34 245.02 4.68 244 4 C243.01 3.01 243.01 3.01 242 2 C240.13565991 1.69414753 240.13565991 1.69414753 237.97450066 1.73828697 C236.70405492 1.72708873 236.70405492 1.72708873 235.40794361 1.71566427 C234.0042679 1.71856637 234.0042679 1.71856637 232.57223511 1.7215271 C231.58230659 1.7157347 230.59237807 1.7099423 229.57245171 1.70397437 C226.23430391 1.68688316 222.89629359 1.68409004 219.55810547 1.68115234 C217.17360084 1.67186046 214.78909949 1.66169291 212.40460205 1.65071106 C206.58820535 1.62616252 200.7718358 1.61078801 194.95539962 1.59939598 C188.18915011 1.58565335 181.42295632 1.56069384 174.6567433 1.53501268 C162.58970275 1.48951103 150.52265219 1.45291021 138.45556641 1.421875 C126.73159019 1.39170324 115.00763847 1.35735933 103.28369141 1.31738281 C102.56136392 1.31492126 101.83903644 1.31245972 101.09482025 1.30992357 C97.47121603 1.29754924 93.84761211 1.28509266 90.22400832 1.27259517 C60.14937282 1.16897689 30.07470834 1.0799381 0 1 C0 0.67 0 0.34 0 0 Z " fill="#D3FED0" transform="translate(128,123)"/>
<path d="M0 0 C0.95939487 2.8781846 1.12357029 4.66316695 1.12025452 7.65068054 C1.12162918 8.60560394 1.12300385 9.56052734 1.12442017 10.54438782 C1.12082489 11.59023544 1.11722961 12.63608307 1.11352539 13.71362305 C1.11367142 14.8162146 1.11381744 15.91880615 1.1139679 17.05480957 C1.11327002 20.70713249 1.10548344 24.35940471 1.09765625 28.01171875 C1.09579163 30.5409187 1.09436793 33.07011902 1.09336853 35.59931946 C1.08993768 41.58098662 1.08205244 47.56263195 1.07201904 53.54429036 C1.06084387 60.35438502 1.05534391 67.16448054 1.05032361 73.97458208 C1.03986946 87.98306483 1.02227875 101.99153142 1 116 C0.34 116 -0.32 116 -1 116 C-2.18906831 113.62186338 -2.12829887 112.1748457 -2.13371277 109.52099609 C-2.13797775 108.57875183 -2.14224274 107.63650757 -2.14663696 106.66571045 C-2.14618378 105.62876038 -2.14573059 104.5918103 -2.14526367 103.5234375 C-2.14862228 102.43395813 -2.1519809 101.34447876 -2.15544128 100.22198486 C-2.16497143 96.60631177 -2.16689533 92.99068488 -2.16796875 89.375 C-2.17117951 86.87158183 -2.17454344 84.36816386 -2.17805481 81.86474609 C-2.18405098 76.61230162 -2.18593687 71.35986895 -2.18530273 66.10742188 C-2.18470151 60.0305206 -2.19526188 53.95370798 -2.2110464 47.87682915 C-2.22567735 42.03663392 -2.22929139 36.19647393 -2.22869301 30.35626221 C-2.22987707 27.8682621 -2.23432249 25.38026141 -2.24202538 22.89227295 C-2.25176924 19.42029352 -2.24896962 15.94854526 -2.24291992 12.4765625 C-2.24853943 11.43961243 -2.25415894 10.40266235 -2.25994873 9.33428955 C-2.25575424 8.39204529 -2.25155975 7.44980103 -2.24723816 6.47900391 C-2.24778293 5.65751862 -2.24832769 4.83603333 -2.24888897 3.98965454 C-2 2 -2 2 0 0 Z " fill="#E6FBE3" transform="translate(125,126)"/>
<path d="M0 0 C0.33 0 0.66 0 1 0 C1 59.07 1 118.14 1 179 C0.34 179 -0.32 179 -1 179 C-1 179.99 -1 180.98 -1 182 C-4.43367856 184.09352976 -7.09363593 184.23437612 -11.078125 184.1953125 C-12.81835938 184.18564453 -12.81835938 184.18564453 -14.59375 184.17578125 C-16.40359375 184.15064453 -16.40359375 184.15064453 -18.25 184.125 C-19.47203125 184.11597656 -20.6940625 184.10695313 -21.953125 184.09765625 C-24.96894782 184.07409513 -27.98437492 184.04119706 -31 184 C-30.505 182.02 -30.505 182.02 -30 180 C-29.34 180.33 -28.68 180.66 -28 181 C-26.45284711 181.09572625 -24.90167259 181.13074056 -23.3515625 181.1328125 C-21.96710938 181.13474609 -21.96710938 181.13474609 -20.5546875 181.13671875 C-19.58789062 181.13285156 -18.62109375 181.12898437 -17.625 181.125 C-16.18640625 181.13080078 -16.18640625 181.13080078 -14.71875 181.13671875 C-13.79320312 181.13542969 -12.86765625 181.13414062 -11.9140625 181.1328125 C-11.0679541 181.13168457 -10.2218457 181.13055664 -9.35009766 181.12939453 C-7.10158956 181.00559344 -5.15709426 180.62653416 -3 180 C-1.74703953 175.09136367 -1.78423335 170.21202192 -1.70336914 165.17895508 C-1.68410055 164.18569654 -1.66483196 163.19243801 -1.64497948 162.16908073 C-1.58244542 158.84846852 -1.52721867 155.52778344 -1.47265625 152.20703125 C-1.43092574 149.84047931 -1.38918249 147.4739276 -1.34742737 145.1073761 C-0.88567066 118.02215176 -0.67890185 90.93413718 -0.48259032 63.84596646 C-0.43179615 56.85343167 -0.37743909 49.86092562 -0.32291877 42.86841905 C-0.21157741 28.57897325 -0.1042805 14.28949907 0 0 Z " fill="#DCF7DC" transform="translate(375,192)"/>
<path d="M0 0 C0.46148437 0.38671875 0.92296875 0.7734375 1.3984375 1.171875 C11.81489477 9.48857211 23.3872131 11.30045836 36.20922852 13.58276367 C38 14 38 14 39 15 C43.8882919 15.73768937 48.82653556 16.12694876 53.75 16.5625 C54.89668152 16.6652977 54.89668152 16.6652977 56.06652832 16.77017212 C79.9791643 18.83669243 104.02341892 18.27348533 128 18 C123.91752717 20.25204847 120.14782245 20.450382 115.5625 20.625 C114.70213135 20.66222168 113.8417627 20.69944336 112.95532227 20.73779297 C24.5529743 24.09357177 24.5529743 24.09357177 2.5625 5.5 C1.716875 4.675 0.87125 3.85 0 3 C0 2.01 0 1.02 0 0 Z " fill="#D9D8D6" transform="translate(160,335)"/>
<path d="M0 0 C0.66 0.33 1.32 0.66 2 1 C2 1.66 2 2.32 2 3 C1.34 3 0.68 3 0 3 C0 3.66 0 4.32 0 5 C1.65 4.67 3.3 4.34 5 4 C5.99 6.31 6.98 8.62 8 11 C6.6875 12.5 6.6875 12.5 5 14 C4.01 14 3.02 14 2 14 C2 15.32 2 16.64 2 18 C-1.3 18 -4.6 18 -8 18 C-8.226875 18.639375 -8.45375 19.27875 -8.6875 19.9375 C-10.48565826 24.13320261 -12.73904021 28.03900556 -15 32 C-15.99 31.67 -16.98 31.34 -18 31 C-17.10848907 25.63741775 -14.89693388 21.5399389 -12.3125 16.8125 C-11.89033203 15.99330078 -11.46816406 15.17410156 -11.03320312 14.33007812 C-7.7761225 8.36121997 -7.7761225 8.36121997 -3.66796875 6.44921875 C-2.78753906 6.30097656 -1.90710938 6.15273438 -1 6 C-1.020625 5.195625 -1.04125 4.39125 -1.0625 3.5625 C-1 1 -1 1 0 0 Z " fill="#E2E4E6" transform="translate(222,265)"/>
<path d="M0 0 C8 9.42857143 8 9.42857143 8 15 C-7.18 15 -22.36 15 -38 15 C-38 14.67 -38 14.34 -38 14 C-36.72125 13.855625 -35.4425 13.71125 -34.125 13.5625 C-31.74307106 13.29357254 -30.15547309 13.07773654 -28 12 C-28 11.34 -28 10.68 -28 10 C-27.34 10 -26.68 10 -26 10 C-25.67 9.34 -25.34 8.68 -25 8 C-24.34 8 -23.68 8 -23 8 C-22.67 7.01 -22.34 6.02 -22 5 C-20 8 -20 8 -20 11 C-12.74 11 -5.48 11 2 11 C-0.475 7.04 -0.475 7.04 -3 3 C-3 2.34 -3 1.68 -3 1 C-2.01 0.67 -1.02 0.34 0 0 Z " fill="#DCDEE3" transform="translate(252,269)"/>
<path d="M0 0 C0.99 0.66 1.98 1.32 3 2 C2.67 3.32 2.34 4.64 2 6 C30.71 6.33 59.42 6.66 89 7 C88.67 8.32 88.34 9.64 88 11 C88 10.01 88 9.02 88 8 C65.23 8 42.46 8 19 8 C19 8.66 19 9.32 19 10 C19.66 10.33 20.32 10.66 21 11 C12.42 11 3.84 11 -5 11 C-3.53867783 6.61603349 -2.416361 3.73437609 0 0 Z " fill="#A3AAB4" transform="translate(203,295)"/>
<path d="M0 0 C9.24 0 18.48 0 28 0 C28 0.33 28 0.66 28 1 C21.73 1 15.46 1 9 1 C10.96262491 6.61276265 10.96262491 6.61276265 12.94921875 12.21704102 C14.59075041 17.02384089 15.3271069 20.92302834 15 26 C14.34 26 13.68 26 13 26 C12.49440092 24.56445975 11.9957251 23.1264798 11.5 21.6875 C11.2215625 20.88699219 10.943125 20.08648437 10.65625 19.26171875 C10 17 10 17 10 14 C8.68 13.67 7.36 13.34 6 13 C6 29.17 6 45.34 6 62 C5.67 62 5.34 62 5 62 C4.99635437 61.28225403 4.99270874 60.56450806 4.98895264 59.82501221 C4.95106538 53.05658066 4.89420452 46.28854493 4.81609726 39.52046585 C4.77660949 36.04096863 4.7444279 32.56172495 4.72900391 29.08203125 C4.71094453 25.08031624 4.66100019 21.07954876 4.609375 17.078125 C4.60814636 15.83009094 4.60691772 14.58205688 4.60565186 13.29620361 C4.58593323 12.13530212 4.5662146 10.97440063 4.54589844 9.77832031 C4.53701599 8.75683899 4.52813354 7.73535767 4.51898193 6.68292236 C4.14298991 3.39639693 4.14298991 3.39639693 0 0 Z " fill="#B2B7BE" transform="translate(305,263)"/>
<path d="M0 0 C45.54 0 91.08 0 138 0 C138 0.66 138 1.32 138 2 C92.79 2 47.58 2 1 2 C1 2.66 1 3.32 1 4 C0.34 4 -0.32 4 -1 4 C-0.67 2.68 -0.34 1.36 0 0 Z " fill="#ECFEEA" transform="translate(127,124)"/>
<path d="M0 0 C1.125 1.6875 1.125 1.6875 2 4 C-1.08615311 13.21216702 -6.93291709 21.57497263 -12.03125 29.76171875 C-14.86076527 34.41582223 -17.45340782 39.18655493 -20 44 C-20.495 42.515 -20.495 42.515 -21 41 C-21.66 40.67 -22.32 40.34 -23 40 C-17.88938167 30.87573951 -12.74437821 21.77149906 -7.5625 12.6875 C-6.78277832 11.31815308 -6.78277832 11.31815308 -5.98730469 9.92114258 C-5.25302246 8.63566528 -5.25302246 8.63566528 -4.50390625 7.32421875 C-4.06892822 6.56197998 -3.6339502 5.79974121 -3.18579102 5.0144043 C-2.18121688 3.30784857 -1.09846069 1.64769104 0 0 Z " fill="#C0CBD4" transform="translate(185,281)"/>
<path d="M0 0 C3.84786006 2.56524004 3.97356047 4.98765618 4.875 9.25 C7.18147856 19.26858882 10.25347864 28.83715007 15 38 C10.82412255 39.39195915 8.86525224 37.82323219 5 36 C5.05800781 35.030625 5.11601562 34.06125 5.17578125 33.0625 C5.55306644 23.6916792 4.26607732 16.14052231 1.09375 7.328125 C0 4 0 4 0 0 Z " fill="#BDBCB9" transform="translate(320,290)"/>
<path d="M0 0 C2.16569786 3.57966589 2.46061148 6.87302859 2.875 11 C3.60477937 17.54350965 4.65676552 23.97940543 5.9375 30.4375 C6.17412354 31.66049805 6.17412354 31.66049805 6.41552734 32.90820312 C7.76846313 39.57924861 9.85480727 45.86578831 12.1875 52.25 C12.99685565 54.9893576 13.1669151 57.16244331 13 60 C12.01 60.495 12.01 60.495 11 61 C8.96309933 55.37815414 7.46617548 49.8603659 6.4296875 43.96875 C6.1872214 42.00719986 6.1872214 42.00719986 5 41 C3.29292589 34.85261514 2.3314285 28.48709423 1.375 22.1875 C1.24311279 21.31963867 1.11122559 20.45177734 0.9753418 19.55761719 C0.03299231 13.01051165 -0.36312942 6.61702491 0 0 Z " fill="#E0DFDE" transform="translate(265,124)"/>
<path d="M0 0 C1 3 1 3 0 6 C-0.10013071 7.48451565 -0.14612213 8.97302165 -0.15821838 10.46086121 C-0.1680072 11.37371384 -0.17779602 12.28656647 -0.18788147 13.2270813 C-0.19363693 14.22617523 -0.1993924 15.22526917 -0.20532227 16.25463867 C-0.21522186 17.30846237 -0.22512146 18.36228607 -0.23532104 19.44804382 C-0.26695706 22.93799579 -0.29170188 26.42796139 -0.31640625 29.91796875 C-0.33697395 32.33507139 -0.35797038 34.75217041 -0.37937927 37.16926575 C-0.43461886 43.53637775 -0.48401986 49.9035223 -0.53222656 56.27069092 C-0.58242778 62.76577661 -0.63812105 69.26081492 -0.69335938 75.75585938 C-0.80096405 88.50386551 -0.90259036 101.25191209 -1 114 C-1.33 114 -1.66 114 -2 114 C-2.04667943 99.43157073 -2.08183603 84.86315303 -2.10362434 70.29466438 C-2.11394571 63.53056466 -2.12802239 56.76651135 -2.15087891 50.00244141 C-2.17290956 43.47967578 -2.18455557 36.95694034 -2.18975449 30.43413925 C-2.19346137 27.94055292 -2.20069953 25.44696934 -2.21146011 22.95340347 C-2.22589297 19.4716436 -2.22798139 15.99008556 -2.22705078 12.50830078 C-2.23424133 11.46820862 -2.24143188 10.42811646 -2.24884033 9.35650635 C-2.246091 8.41137177 -2.24334167 7.46623718 -2.24050903 6.49246216 C-2.24235262 5.66837923 -2.24419621 4.8442963 -2.24609566 3.99524117 C-2 2 -2 2 0 0 Z " fill="#CDFDCC" transform="translate(125,126)"/>
<path d="M0 0 C0.33 0 0.66 0 1 0 C1.375 2.1875 1.375 2.1875 1 5 C-4.08267016 11.12910225 -11.55996141 12.13999035 -19 14 C-19.74765625 14.22816406 -20.4953125 14.45632813 -21.265625 14.69140625 C-27.11373493 16.44829642 -32.96361357 16.18109159 -39 16 C-35.33157103 13.81214519 -31.459869 13.2077701 -27.3125 12.5 C-25.881305 12.24463819 -24.45031342 11.98813356 -23.01953125 11.73046875 C-22.33068848 11.60720215 -21.6418457 11.48393555 -20.93212891 11.35693359 C-17.26267568 10.67905381 -13.6342382 9.84366244 -10 9 C-10.33 8.01 -10.66 7.02 -11 6 C-10.34 6 -9.68 6 -9 6 C-9 5.34 -9 4.68 -9 4 C-8.43410156 3.79503906 -7.86820312 3.59007812 -7.28515625 3.37890625 C-6.18494141 2.97478516 -6.18494141 2.97478516 -5.0625 2.5625 C-4.33160156 2.29566406 -3.60070312 2.02882813 -2.84765625 1.75390625 C-1.01694322 1.14613052 -1.01694322 1.14613052 0 0 Z " fill="#F2F1EF" transform="translate(335,338)"/>
<path d="M0 0 C1 3 1 3 0 5.4375 C-1.13891119 7.86213546 -1.13891119 7.86213546 -0.9375 10.0625 C0.99886453 14.06432002 4.52706449 15.81019662 8.5234375 17.4140625 C9.80381306 17.82861033 11.0878097 18.23212264 12.375 18.625 C13.00921875 18.82867187 13.6434375 19.03234375 14.296875 19.2421875 C16.19242088 19.84566741 18.09623214 20.4229817 20 21 C21.10730469 21.34546875 22.21460938 21.6909375 23.35546875 22.046875 C27.85006236 23.22230998 32.34647433 23.94071024 36.9375 24.625 C37.81212891 24.7590625 38.68675781 24.893125 39.58789062 25.03125 C41.72464934 25.35818576 43.86224299 25.67965679 46 26 C46 26.33 46 26.66 46 27 C29.54746524 26.55170205 12.78601425 24.80721139 -1 15 C-3.24688756 12.48792185 -3.93576992 11.43125913 -4.4375 8.0625 C-3.90475283 4.33326978 -2.54808744 2.70734291 0 0 Z " fill="#F0EFEE" transform="translate(162,327)"/>
<path d="M0 0 C0.66 0 1.32 0 2 0 C2 0.66 2 1.32 2 2 C2.66 2.33 3.32 2.66 4 3 C3.835 3.7425 3.67 4.485 3.5 5.25 C2.88074304 8.19006578 2.88074304 8.19006578 3 12 C3 24 3 36 3 48 C2.01 47.34 1.02 46.68 0 46 C-0.36076355 44.01315308 -0.36076355 44.01315308 -0.34057617 41.55029297 C-0.34034958 40.62948944 -0.34012299 39.70868591 -0.33988953 38.75997925 C-0.31666374 37.26617233 -0.31666374 37.26617233 -0.29296875 35.7421875 C-0.28872391 34.72399933 -0.28447906 33.70581116 -0.28010559 32.6567688 C-0.26327579 29.39591327 -0.22561546 26.13566959 -0.1875 22.875 C-0.17245874 20.66797766 -0.15876937 18.46094566 -0.14648438 16.25390625 C-0.1133583 10.83572777 -0.06311653 5.41790758 0 0 Z " fill="#C7DAC3" transform="translate(124,324)"/>
<path d="M0 0 C8 9.42857143 8 9.42857143 8 15 C-7.18 15 -22.36 15 -38 15 C-38 14.67 -38 14.34 -38 14 C-25.13 13.67 -12.26 13.34 1 13 C0.11533974 8.5766987 -0.72670867 6.65703388 -3 3 C-3 2.34 -3 1.68 -3 1 C-2.01 0.67 -1.02 0.34 0 0 Z " fill="#B1B6C0" transform="translate(252,269)"/>
<path d="M0 0 C2.55395487 -0.26711404 4.86274374 -0.34849029 7.4140625 -0.29296875 C8.50852188 -0.28660149 8.50852188 -0.28660149 9.62509155 -0.28010559 C11.95876759 -0.26329353 14.2915844 -0.22563868 16.625 -0.1875 C18.20571671 -0.17245634 19.78644693 -0.15876738 21.3671875 -0.14648438 C25.24512344 -0.11338201 29.12241598 -0.06158404 33 0 C33 0.99 33 1.98 33 3 C21.45 3 9.9 3 -2 3 C-1.34 2.01 -0.68 1.02 0 0 Z " fill="#CED3DD" transform="translate(258,303)"/>
<path d="M0 0 C3.40157336 3.18432181 5.37092514 6.83947887 7.625 10.875 C8.03234375 11.58269531 8.4396875 12.29039062 8.859375 13.01953125 C10.90451725 16.65609214 12.52047432 19.78348107 13 24 C8.25484386 21.73093755 6.21318097 18.62686178 3.8125 14.125 C3.29913086 13.20654297 3.29913086 13.20654297 2.77539062 12.26953125 C0.93254237 8.92735598 -0.67346038 5.57825558 -2 2 C-1.34 2 -0.68 2 0 2 C0 1.34 0 0.68 0 0 Z " fill="#D4DCE2" transform="translate(239,247)"/>
<path d="M0 0 C3.26906207 3.26906207 4.91626844 5.90695586 7 10 C6.67 10.66 6.34 11.32 6 12 C5.01 11.67 4.02 11.34 3 11 C3 11.66 3 12.32 3 13 C1.35 13 -0.3 13 -2 13 C-2.33 13.99 -2.66 14.98 -3 16 C-3.185625 15.071875 -3.185625 15.071875 -3.375 14.125 C-3.87197356 11.80879168 -3.87197356 11.80879168 -6 10 C-4.02 6.7 -2.04 3.4 0 0 Z " fill="#3E4A5B" transform="translate(209,202)"/>
<path d="M0 0 C1.98 0 3.96 0 6 0 C6 0.66 6 1.32 6 2 C5.34 2 4.68 2 4 2 C4.16455185 2.68265427 4.3291037 3.36530853 4.49864197 4.06864929 C5.07073301 7.41356325 5.0775703 10.50767182 5.02172852 13.90161133 C5.0073172 14.91220108 5.0073172 14.91220108 4.99261475 15.94320679 C4.95979807 18.15626047 4.91940075 20.36910588 4.87890625 22.58203125 C4.85458815 24.12187479 4.83074545 25.66172591 4.80735779 27.20158386 C4.74468491 31.24417789 4.67557118 35.28663692 4.60510254 39.32910156 C4.5342669 43.45827107 4.46954124 47.5875359 4.40429688 51.71679688 C4.27550119 59.8113035 4.13989904 67.9056777 4 76 C3.67 76 3.34 76 3 76 C2.99191315 75.09211227 2.98382629 74.18422455 2.97549438 73.24882507 C2.89760571 64.69955645 2.81033243 56.15044654 2.71247292 47.60138226 C2.66249261 43.20604811 2.61616279 38.81073821 2.578125 34.4152832 C2.54129401 30.17470344 2.49494015 25.93432561 2.44193649 21.69391823 C2.42338088 20.07481231 2.40827723 18.45566308 2.39665604 16.83649254 C2.37981335 14.57136662 2.35078385 12.30670436 2.31884766 10.04174805 C2.30552399 8.75157272 2.29220032 7.4613974 2.2784729 6.13212585 C2.23748986 2.83749691 2.23748986 2.83749691 0 0 Z " fill="#343D4D" transform="translate(289,180)"/>
<path d="M0 0 C0.46148437 0.38671875 0.92296875 0.7734375 1.3984375 1.171875 C12.24821602 9.83454402 24.66744626 11.58577921 38 14 C32.77529393 16.94961524 28.37941201 15.64626005 22.8359375 14.140625 C6.37758906 9.22203811 6.37758906 9.22203811 0 3 C0 2.01 0 1.02 0 0 Z " fill="#E0DEDE" transform="translate(160,335)"/>
<path d="M0 0 C0 5.61 0 11.22 0 17 C-2.86123584 14.13876416 -4.31619211 11.84719268 -6.1875 8.3125 C-6.71730469 7.31863281 -7.24710937 6.32476562 -7.79296875 5.30078125 C-8.19128906 4.54152344 -8.58960938 3.78226562 -9 3 C-7.68825887 2.4980125 -6.37558403 1.99846423 -5.0625 1.5 C-4.33160156 1.2215625 -3.60070312 0.943125 -2.84765625 0.65625 C-1 0 -1 0 0 0 Z " fill="#DEE3E5" transform="translate(291,280)"/>
<path d="M0 0 C0.33 0 0.66 0 1 0 C1.33 1.65 1.66 3.3 2 5 C2.77714355 4.98952637 3.55428711 4.97905273 4.35498047 4.96826172 C7.861621 4.92679718 11.36821006 4.90070422 14.875 4.875 C16.09832031 4.85824219 17.32164062 4.84148437 18.58203125 4.82421875 C19.74863281 4.81777344 20.91523438 4.81132812 22.1171875 4.8046875 C23.19597168 4.79421387 24.27475586 4.78374023 25.38623047 4.77294922 C28 5 28 5 30 7 C23.17897333 7.87899828 16.49951665 8.18288623 9.625 8.1875 C8.14966797 8.20586914 8.14966797 8.20586914 6.64453125 8.22460938 C5.23107422 8.22750977 5.23107422 8.22750977 3.7890625 8.23046875 C2.94037598 8.23457764 2.09168945 8.23868652 1.21728516 8.24291992 C-1 8 -1 8 -4 6 C-2.69593116 3.98079663 -1.36176581 1.98075027 0 0 Z " fill="#7FBF7E" transform="translate(342,370)"/>
<path d="M0 0 C1.66102 4.98306001 -0.78829862 9.41174993 -3 14 C-5.75 16.6875 -5.75 16.6875 -8 18 C-9.33866011 10.81991395 -9.33866011 10.81991395 -7.8125 7.125 C-5.94309771 4.93328697 -4.58083032 4.16553627 -2 3 C-1.34 2.01 -0.68 1.02 0 0 Z " fill="#C4C3C0" transform="translate(351,357)"/>
<path d="M0 0 C0 0.66 0 1.32 0 2 C-11.95092162 6.48159561 -24.24556213 8.65221557 -37 8 C-37 7.67 -37 7.34 -37 7 C-35.97229492 6.84180786 -35.97229492 6.84180786 -34.92382812 6.68041992 C-31.78111474 6.19155929 -28.64061883 5.68963382 -25.5 5.1875 C-23.88351562 4.9390332 -23.88351562 4.9390332 -22.234375 4.68554688 C-15.0912503 3.53132246 -7.0569579 -0.6615898 0 0 Z " fill="#E5E4E4" transform="translate(325,345)"/>
<path d="M0 0 C0.66 0 1.32 0 2 0 C0.51481201 4.04301175 -1.42877998 7.61146256 -3.625 11.3125 C-4.25664062 12.38113281 -4.88828125 13.44976562 -5.5390625 14.55078125 C-6.02117187 15.35902344 -6.50328125 16.16726563 -7 17 C-7.99 16.01 -8.98 15.02 -10 14 C-9.01 13.67 -8.02 13.34 -7 13 C-7 12.34 -7 11.68 -7 11 C-7.66 11 -8.32 11 -9 11 C-9.33 9.02 -9.66 7.04 -10 5 C-7.66666667 5 -5.33333333 5 -3 5 C-2.505 4.175 -2.01 3.35 -1.5 2.5 C-1.005 1.675 -0.51 0.85 0 0 Z " fill="#CACCCC" transform="translate(170,266)"/>
<path d="M0 0 C14.85 0 29.7 0 45 0 C44.67 0.66 44.34 1.32 44 2 C29.81 2 15.62 2 1 2 C1 2.66 1 3.32 1 4 C0.34 4 -0.32 4 -1 4 C-0.67 2.68 -0.34 1.36 0 0 Z " fill="#E2FBE0" transform="translate(127,124)"/>
<path d="M0 0 C1.125 1.6875 1.125 1.6875 2 4 C0.89696878 7.87328778 -1.17833758 11.3000439 -3.125 14.8125 C-3.93324219 16.27623047 -3.93324219 16.27623047 -4.7578125 17.76953125 C-5.16773438 18.50558594 -5.57765625 19.24164063 -6 20 C-6.33 19.01 -6.66 18.02 -7 17 C-7.66 17 -8.32 17 -9 17 C-7.51481201 12.95698825 -5.57122002 9.38853744 -3.375 5.6875 C-2.74335938 4.61886719 -2.11171875 3.55023438 -1.4609375 2.44921875 C-0.97882813 1.64097656 -0.49671875 0.83273437 0 0 Z " fill="#BDC7CD" transform="translate(185,281)"/>
<path d="M0 0 C0.66 0 1.32 0 2 0 C2 0.99 2 1.98 2 3 C3.32 3.33 4.64 3.66 6 4 C4.68 4 3.36 4 2 4 C1.67 4.66 1.34 5.32 1 6 C-5.93 6 -12.86 6 -20 6 C-20.33 5.01 -20.66 4.02 -21 3 C-14.4 3 -7.8 3 -1 3 C-0.67 2.01 -0.34 1.02 0 0 Z " fill="#E0E3EA" transform="translate(162,322)"/>
<path d="M0 0 C0.33 0 0.66 0 1 0 C1.00586624 0.56962967 1.01173248 1.13925934 1.01777649 1.72615051 C1.08163964 7.64727196 1.16604038 13.56784629 1.26245117 19.48852539 C1.29573508 21.69906406 1.32375612 23.90968843 1.34643555 26.12036133 C1.37991759 29.29545666 1.43223052 32.46976417 1.48828125 35.64453125 C1.49467117 36.63524124 1.5010611 37.62595123 1.50764465 38.64668274 C1.53733589 40.02777473 1.53733589 40.02777473 1.56762695 41.43676758 C1.57873001 42.2472908 1.58983307 43.05781403 1.60127258 43.89289856 C2.08734734 46.46159281 3.01453666 47.36254242 5 49 C4.67 49.66 4.34 50.32 4 51 C3.34 51 2.68 51 2 51 C-0.14782833 47.77825751 -0.24649148 46.9566269 -0.22705078 43.25317383 C-0.22689972 42.29240433 -0.22674866 41.33163483 -0.22659302 40.3417511 C-0.21627045 39.30729355 -0.20594788 38.272836 -0.1953125 37.20703125 C-0.1924826 36.14586594 -0.18965271 35.08470062 -0.18673706 33.99137878 C-0.17553184 30.59830503 -0.15042647 27.20549413 -0.125 23.8125 C-0.11497065 21.51367568 -0.10584472 19.21484724 -0.09765625 16.91601562 C-0.07559141 11.27725389 -0.04211044 5.63864572 0 0 Z " fill="#AEE3AC" transform="translate(123,324)"/>
<path d="M0 0 C2.79568549 9.03868241 -0.33016628 21.51350953 -4 30 C-4.68679942 32.32748694 -5.35761043 34.65986656 -6 37 C-6.33 37 -6.66 37 -7 37 C-6.53527581 30.49386137 -5.16280839 24.40601089 -3.52148438 18.11328125 C-1.97994199 12.12780532 -0.88073829 6.11881339 0 0 Z " fill="#DCDBD9" transform="translate(359,320)"/>
<path d="M0 0 C0.66 0.33 1.32 0.66 2 1 C3.66565749 1.15222973 5.33656496 1.24917215 7.0078125 1.31640625 C7.99394531 1.35830078 8.98007812 1.40019531 9.99609375 1.44335938 C11.54490234 1.50233398 11.54490234 1.50233398 13.125 1.5625 C14.68541016 1.62727539 14.68541016 1.62727539 16.27734375 1.69335938 C18.85142528 1.7996288 21.42560508 1.90166583 24 2 C24 2.66 24 3.32 24 4 C15.75 4 7.5 4 -1 4 C-0.67 2.68 -0.34 1.36 0 0 Z " fill="#D7EBD2" transform="translate(345,372)"/>
<path d="M0 0 C1.32 0.99 2.64 1.98 4 3 C1.69 6.96 -0.62 10.92 -3 15 C-3.99 14.67 -4.98 14.34 -6 14 C-5.41892368 10.2397015 -4.34800504 7.46964968 -2.4375 4.1875 C-1.98246094 3.39730469 -1.52742187 2.60710937 -1.05859375 1.79296875 C-0.53458984 0.90544922 -0.53458984 0.90544922 0 0 Z " fill="#CDD6DF" transform="translate(210,282)"/>
<path d="M0 0 C1.890625 0.2421875 1.890625 0.2421875 4 1 C6.84010246 5.93838711 7.35585949 11.42486802 7 17 C6.34 17 5.68 17 5 17 C4.16301614 14.54285453 3.33027576 12.08441143 2.5 9.625 C2.26152344 8.92632812 2.02304687 8.22765625 1.77734375 7.5078125 C0 2.2265625 0 2.2265625 0 0 Z " fill="#D3D0CD" transform="translate(313,272)"/>
<path d="M0 0 C2.66130399 1.01755741 3.80516056 1.66684861 5.265625 4.1640625 C5.59046875 4.97617188 5.9153125 5.78828125 6.25 6.625 C6.58515625 7.44226563 6.9203125 8.25953125 7.265625 9.1015625 C7.62914062 10.04128906 7.62914062 10.04128906 8 11 C7.01 11 6.02 11 5 11 C5 10.01 5 9.02 5 8 C3.576875 8.2784375 3.576875 8.2784375 2.125 8.5625 C-1 9 -1 9 -3 8 C-2.690625 7.236875 -2.38125 6.47375 -2.0625 5.6875 C-1.32106407 3.81210323 -0.63771783 1.91315348 0 0 Z " fill="#455160" transform="translate(221,180)"/>
<path d="M0 0 C0.99 0 1.98 0 3 0 C2.48474397 5.28137429 0.74522883 8.57221156 -2 13 C-2.99 13 -3.98 13 -5 13 C-5.99 13.495 -5.99 13.495 -7 14 C-5.23570801 9.02790438 -2.6060834 4.56561939 0 0 Z " fill="#C5CDD4" transform="translate(175,298)"/>
<path d="M0 0 C-0.99 2.31 -1.98 4.62 -3 7 C-2.01 6.67 -1.02 6.34 0 6 C0.33 6.99 0.66 7.98 1 9 C0.34 9 -0.32 9 -1 9 C-1.33 9.99 -1.66 10.98 -2 12 C-3.00533667 10.37829621 -4.00411907 8.75252763 -5 7.125 C-5.556875 6.22007812 -6.11375 5.31515625 -6.6875 4.3828125 C-8 2 -8 2 -8 0 C-4.94736336 -0.98120464 -3.05263664 -0.98120464 0 0 Z " fill="#E3E5EA" transform="translate(271,249)"/>
<path d="M0 0 C0.33 0 0.66 0 1 0 C1.49940808 6.11774896 0.24900602 9.02495953 -3 14 C-4.65 14 -6.3 14 -8 14 C-7.043419 12.22821947 -6.08467012 10.45760924 -5.125 8.6875 C-4.59132812 7.70136719 -4.05765625 6.71523438 -3.5078125 5.69921875 C-2 3 -2 3 0 0 Z " fill="#3D4B58" transform="translate(171,268)"/>
<path d="M0 0 C5.47169811 6.60377358 5.47169811 6.60377358 7 10 C6.1875 12.8125 6.1875 12.8125 5 15 C2.2770823 11.82326269 0.11849254 9.06724559 -1 5 C-0.625 2.1875 -0.625 2.1875 0 0 Z " fill="#CAD1DC" transform="translate(211,243)"/>
<path d="M0 0 C0.66 0 1.32 0 2 0 C2 6.93 2 13.86 2 21 C1.67 21 1.34 21 1 21 C-1.43818586 14.4473755 -1.43249199 7.93998781 -1 1 C-0.67 0.67 -0.34 0.34 0 0 Z " fill="#374452" transform="translate(340,180)"/>
<path d="M0 0 C0.66 0.33 1.32 0.66 2 1 C0.6875 9.4375 0.6875 9.4375 -2.0625 11.6875 C-2.701875 12.120625 -3.34125 12.55375 -4 13 C-4.66 12.67 -5.32 12.34 -6 12 C-4.43358249 7.69235185 -2.31663844 3.93828536 0 0 Z " fill="#3D4A59" transform="translate(202,214)"/>
<path d="M0 0 C0.144375 0.598125 0.28875 1.19625 0.4375 1.8125 C0.8872439 3.56150404 1.42892341 5.28677023 2 7 C1.34 7 0.68 7 0 7 C0 7.66 0 8.32 0 9 C-0.99 9.495 -0.99 9.495 -2 10 C-2 10.66 -2 11.32 -2 12 C-3.65 12.66 -5.3 13.32 -7 14 C-5.53967505 8.68972746 -3.01679014 4.53669968 0 0 Z " fill="#3E495A" transform="translate(149,306)"/>
<path d="M0 0 C2.54792457 1.27396229 2.58799022 2.11310216 3.5 4.75 C3.75394531 5.46671875 4.00789063 6.1834375 4.26953125 6.921875 C4.51058594 7.60765625 4.75164062 8.2934375 5 9 C5.66066719 10.66905395 6.32438252 12.3369416 7 14 C6.01 14.33 5.02 14.66 4 15 C3.01 14.34 2.02 13.68 1 13 C0.48828125 9.9609375 0.48828125 9.9609375 0.3125 6.375 C0.24675781 5.18648438 0.18101562 3.99796875 0.11328125 2.7734375 C0.07589844 1.85820312 0.03851563 0.94296875 0 0 Z " fill="#D1D0CD" transform="translate(328,314)"/>
<path d="M0 0 C0.99 0.33 1.98 0.66 3 1 C3.99 0.67 4.98 0.34 6 0 C6.66 0.33 7.32 0.66 8 1 C9.66565749 1.15222973 11.33656496 1.24917215 13.0078125 1.31640625 C13.99394531 1.35830078 14.98007812 1.40019531 15.99609375 1.44335938 C17.54490234 1.50233398 17.54490234 1.50233398 19.125 1.5625 C20.68541016 1.62727539 20.68541016 1.62727539 22.27734375 1.69335938 C24.85142528 1.7996288 27.42560508 1.90166583 30 2 C30 2.33 30 2.66 30 3 C20.43 3 10.86 3 1 3 C0.67 2.01 0.34 1.02 0 0 Z " fill="#F2F5FA" transform="translate(288,176)"/>
<path d="M0 0 C1.24592785 3.73778355 0.54425229 4.9910133 -0.8125 8.625 C-1.34810547 10.09839844 -1.34810547 10.09839844 -1.89453125 11.6015625 C-3 14 -3 14 -5 15 C-4.67 12.36 -4.34 9.72 -4 7 C-4.99 7 -5.98 7 -7 7 C-4.66666667 4.66666667 -2.33333333 2.33333333 0 0 Z " fill="#D4D3D1" transform="translate(351,357)"/>
<path d="M0 0 C4.29 0 8.58 0 13 0 C13 0.66 13 1.32 13 2 C13.99 2.33 14.98 2.66 16 3 C10.72 2.67 5.44 2.34 0 2 C0 1.34 0 0.68 0 0 Z " fill="#D1D5DE" transform="translate(240,280)"/>
<path d="M0 0 C0.66 0 1.32 0 2 0 C2 0.66 2 1.32 2 2 C2.66 2 3.32 2 4 2 C4.66 5.63 5.32 9.26 6 13 C5.34 13 4.68 13 4 13 C3.32942113 11.2097939 2.6636531 9.41778511 2 7.625 C1.62875 6.62726563 1.2575 5.62953125 0.875 4.6015625 C0 2 0 2 0 0 Z " fill="#DBDAD8" transform="translate(278,187)"/>
<path d="M0 0 C1.58206057 0.00667536 3.16410534 0.0186375 4.74609375 0.03515625 C5.55240234 0.03966797 6.35871094 0.04417969 7.18945312 0.04882812 C9.18753131 0.06065107 11.18557158 0.07858711 13.18359375 0.09765625 C12.85359375 0.75765625 12.52359375 1.41765625 12.18359375 2.09765625 C11.18457031 2.08605469 10.18554688 2.07445313 9.15625 2.0625 C7.86589844 2.05347656 6.57554687 2.04445313 5.24609375 2.03515625 C3.31443359 2.01775391 3.31443359 2.01775391 1.34375 2 C-1.67939028 1.73233076 -1.67939028 1.73233076 -2.81640625 3.09765625 C-3.04715707 4.44512709 -3.22793688 5.8014319 -3.37890625 7.16015625 C-3.52328125 8.45953125 -3.66765625 9.75890625 -3.81640625 11.09765625 C-4.14640625 11.09765625 -4.47640625 11.09765625 -4.81640625 11.09765625 C-4.84328776 9.45191059 -4.86274748 7.80604212 -4.87890625 6.16015625 C-4.89050781 5.24363281 -4.90210938 4.32710937 -4.9140625 3.3828125 C-4.74806315 -0.5015722 -4.08167578 0.10444411 0 0 Z " fill="#F5F9F4" transform="translate(357.81640625,124.90234375)"/>
<path d="M0 0 C2.52349243 3.12432397 4.27256146 6.38060496 6 10 C5.01 10.495 5.01 10.495 4 11 C3.67 10.34 3.34 9.68 3 9 C2.01 9.495 2.01 9.495 1 10 C-0.80411967 7.24075815 -1.0127245 6.11027897 -0.625 2.75 C-0.41875 1.8425 -0.2125 0.935 0 0 Z " fill="#414D5C" transform="translate(283,285)"/>
<path d="M0 0 C3.63 0 7.26 0 11 0 C11 0.99 11 1.98 11 3 C9.54257537 3.08096803 8.08387193 3.13917774 6.625 3.1875 C5.81289063 3.22230469 5.00078125 3.25710938 4.1640625 3.29296875 C3.44992187 3.19628906 2.73578125 3.09960938 2 3 C1.34 2.01 0.68 1.02 0 0 Z " fill="#D5DEE7" transform="translate(280,303)"/>
<path d="M0 0 C3 1 3 1 4.6875 3.3125 C6 6 6 6 6 10 C5.01 10 4.02 10 3 10 C2.49596232 8.70990357 1.99690074 7.41786211 1.5 6.125 C1.2215625 5.40570313 0.943125 4.68640625 0.65625 3.9453125 C0 2 0 2 0 0 Z " fill="#DDE7EF" transform="translate(233,239)"/>
<path d="M0 0 C0.99 0.66 1.98 1.32 3 2 C2.67 2.66 2.34 3.32 2 4 C1.67 4 1.34 4 1 4 C0.731875 4.598125 0.46375 5.19625 0.1875 5.8125 C-0.98493467 7.97224808 -2.19369282 9.35790256 -4 11 C-4.66 10.67 -5.32 10.34 -6 10 C-4.02 6.7 -2.04 3.4 0 0 Z " fill="#445260" transform="translate(172,311)"/>
<path d="M0 0 C1.485 0.99 1.485 0.99 3 2 C3.34057617 3.97119141 3.34057617 3.97119141 3.29296875 6.3515625 C3.28330078 7.20234375 3.27363281 8.053125 3.26367188 8.9296875 C3.23853516 9.81914062 3.21339844 10.70859375 3.1875 11.625 C3.16719727 12.97078125 3.16719727 12.97078125 3.14648438 14.34375 C3.11106925 16.56309789 3.06168461 18.78125188 3 21 C2.67 21 2.34 21 2 21 C1.93941406 19.92878906 1.87882812 18.85757813 1.81640625 17.75390625 C1.73201463 16.35675609 1.64736594 14.95962143 1.5625 13.5625 C1.50352539 12.50192383 1.50352539 12.50192383 1.44335938 11.41992188 C1.52375562 7.91309581 1.52375562 7.91309581 0 5 C-0.04063832 3.33382885 -0.042721 1.66611905 0 0 Z " fill="#D9DCDC" transform="translate(288,211)"/>
<path d="M0 0 C0.66 0.33 1.32 0.66 2 1 C2.25 3.3125 2.25 3.3125 2 6 C-0.04424538 7.97610386 -1.1176825 9 -4 9 C-2.94124926 5.59687262 -1.99097846 2.98646769 0 0 Z " fill="#404B5B" transform="translate(212,287)"/>
<path d="M0 0 C0.99 0.33 1.98 0.66 3 1 C1.36121132 4.3946337 -0.3090372 7.3090372 -3 10 C-3.66 10.99 -4.32 11.98 -5 13 C-5.33 12.34 -5.66 11.68 -6 11 C-4.78515625 8.3984375 -4.78515625 8.3984375 -3.0625 5.375 C-2.21365234 3.87066406 -2.21365234 3.87066406 -1.34765625 2.3359375 C-0.90292969 1.56507813 -0.45820313 0.79421875 0 0 Z " fill="#46515D" transform="translate(208,248)"/>
<path d="M0 0 C0.99 0 1.98 0 3 0 C1.55049545 3.7910119 -0.15172566 7.3874638 -2 11 C-2.66 10.01 -3.32 9.02 -4 8 C-2.68 5.36 -1.36 2.72 0 0 Z " fill="#D9DDE7" transform="translate(188,233)"/>
<path d="M0 0 C1.98 0.66 3.96 1.32 6 2 C5.67 4.64 5.34 7.28 5 10 C2.66063182 7.87330165 1.19346152 5.93775144 0 3 C0 2.01 0 1.02 0 0 Z " fill="#E8ECF1" transform="translate(232,194)"/>
<path d="M0 0 C1.875 0.125 1.875 0.125 4 1 C5.88698167 5.05701058 6.21117043 8.56542098 6 13 C3.7324275 10.7324275 3.7340089 10.01759214 3 7 C2.05579746 4.63949365 1.02869803 2.32575208 0 0 Z " fill="#3C4758" transform="translate(255,273)"/>
<path d="M0 0 C1.32 0.33 2.64 0.66 4 1 C2.68 3.64 1.36 6.28 0 9 C-0.33 8.34 -0.66 7.68 -1 7 C-1.99 6.67 -2.98 6.34 -4 6 C-2.68 6 -1.36 6 0 6 C0 5.34 0 4.68 0 4 C-0.66 3.67 -1.32 3.34 -2 3 C-1.34 2.01 -0.68 1.02 0 0 Z " fill="#D5D9DD" transform="translate(196,217)"/>
<path d="M0 0 C0.99 0 1.98 0 3 0 C1.7508258 3.45925163 0.32472205 6.14693203 -2 9 C-2.66 7.68 -3.32 6.36 -4 5 C-3.34 5 -2.68 5 -2 5 C-1.34 3.35 -0.68 1.7 0 0 Z " fill="#D1D2DC" transform="translate(150,299)"/>
<path d="M0 0 C0.33 1.32 0.66 2.64 1 4 C1.66 4 2.32 4 3 4 C3.66 7.96 4.32 11.92 5 16 C4.34 16 3.68 16 3 16 C-0.44419134 5.62642369 -0.44419134 5.62642369 0 0 Z " fill="#D6D5D3" transform="translate(323,292)"/>
<path d="M0 0 C0.66 0 1.32 0 2 0 C0.68775452 3.93673644 -0.91910327 6.22719294 -4 9 C-4.66 8.67 -5.32 8.34 -6 8 C-6 7.34 -6 6.68 -6 6 C-6.66 5.67 -7.32 5.34 -8 5 C-6.68 5.33 -5.36 5.66 -4 6 C-3.38125 5.01 -2.7625 4.02 -2.125 3 C-1.42375 2.01 -0.7225 1.02 0 0 Z " fill="#D6D9DF" transform="translate(170,266)"/>
<path d="M0 0 C2.0625 2.25 2.0625 2.25 4 5 C3.75 7.3125 3.75 7.3125 3 9 C1.35 7.35 -0.3 5.7 -2 4 C-1.34 2.68 -0.68 1.36 0 0 Z " fill="#CED6DA" transform="translate(248,262)"/>
<path d="M0 0 C0.99 0.33 1.98 0.66 3 1 C3 3.97 3 6.94 3 10 C0.74754119 7.31158141 -0.88213958 5.35358125 -2 2 C-1.34 1.34 -0.68 0.68 0 0 Z " fill="#E7E9EE" transform="translate(242,208)"/>
<path d="M0 0 C0.33 0.99 0.66 1.98 1 3 C-0.8125 6.1875 -0.8125 6.1875 -3 9 C-3.66 9 -4.32 9 -5 9 C-4.50769231 3.46153846 -4.50769231 3.46153846 -1.9375 1.125 C-1.298125 0.75375 -0.65875 0.3825 0 0 Z " fill="#CCD8E2" transform="translate(171,309)"/>
<path d="M0 0 C2.02350324 3.03525486 2.32124018 4.19426202 2.625 7.6875 C2.69976562 8.49574219 2.77453125 9.30398438 2.8515625 10.13671875 C2.92503906 11.05904297 2.92503906 11.05904297 3 12 C2.54625 11.38125 2.0925 10.7625 1.625 10.125 C0.02891081 7.94080167 0.02891081 7.94080167 -2 6 C-1.33333333 4 -0.66666667 2 0 0 Z " fill="#D1D0CE" transform="translate(323,304)"/>
<path d="M0 0 C1.32 0.33 2.64 0.66 4 1 C2.92598892 3.91517292 2.22189824 5.77810176 0 8 C-1.125 6.25 -1.125 6.25 -2 4 C-1.125 1.75 -1.125 1.75 0 0 Z " fill="#CAD3DF" transform="translate(199,256)"/>
<path d="M0 0 C0.99 0.33 1.98 0.66 3 1 C3.33 2.65 3.66 4.3 4 6 C4.66 6 5.32 6 6 6 C6.33 7.98 6.66 9.96 7 12 C0 3.55172414 0 3.55172414 0 0 Z " fill="#3E4956" transform="translate(246,257)"/>
<path d="M0 0 C1.32 0.99 2.64 1.98 4 3 C2.515 5.475 2.515 5.475 1 8 C0.01 7.67 -0.98 7.34 -2 7 C-1.34 4.69 -0.68 2.38 0 0 Z " fill="#CCD5E0" transform="translate(187,277)"/>
<path d="M0 0 C0.66 0.33 1.32 0.66 2 1 C2 1.66 2 2.32 2 3 C2.66 3 3.32 3 4 3 C4.625 4.875 4.625 4.875 5 7 C4.34 7.66 3.68 8.32 3 9 C1.68 6.36 0.36 3.72 -1 1 C-0.67 0.67 -0.34 0.34 0 0 Z " fill="#DAE1E7" transform="translate(273,264)"/>
<path d="M0 0 C0.66 0.33 1.32 0.66 2 1 C1.40072174 4.35595828 0.15377564 6.37801226 -2 9 C-3.125 4.25 -3.125 4.25 -2 2 C-1.34 2 -0.68 2 0 2 C0 1.34 0 0.68 0 0 Z " fill="#E3E5EC" transform="translate(174,257)"/>
<path d="M0 0 C0.33 0 0.66 0 1 0 C2.12880057 3.31114834 3.21302675 6.58978257 4 10 C2.68 10 1.36 10 0 10 C-0.95024979 6.30458414 -0.95024979 3.69541586 0 0 Z " fill="#2A3C51" transform="translate(233,245)"/>
<path d="M0 0 C0.33 0 0.66 0 1 0 C1.125 2.875 1.125 2.875 1 6 C0.34 6.66 -0.32 7.32 -1 8 C-1.99 7.34 -2.98 6.68 -4 6 C-2.69593116 3.98079663 -1.36176581 1.98075027 0 0 Z " fill="#9CB296" transform="translate(342,370)"/>
<path d="M0 0 C6 7.71428571 6 7.71428571 6 11 C3 10 3 10 1.3125 7.75 C-0.06511203 4.8635748 -0.26985151 3.14826764 0 0 Z " fill="#455062" transform="translate(234,245)"/>
<path d="M0 0 C2 2 2 2 2 6 C0.35 6.33 -1.3 6.66 -3 7 C-1.125 2.25 -1.125 2.25 0 0 Z " fill="#424F5D" transform="translate(196,269)"/>
<path d="M0 0 C0.66 0.33 1.32 0.66 2 1 C1.67 2.65 1.34 4.3 1 6 C-0.32 6.33 -1.64 6.66 -3 7 C-2.25 2.25 -2.25 2.25 0 0 Z " fill="#D7E2EC" transform="translate(203,251)"/>
<path d="M0 0 C2.475 0.495 2.475 0.495 5 1 C5.33 2.65 5.66 4.3 6 6 C5.01 6.33 4.02 6.66 3 7 C2.01 4.69 1.02 2.38 0 0 Z " fill="#E4E7EB" transform="translate(253,232)"/>
<path d="M0 0 C1.98 0 3.96 0 6 0 C6 0.66 6 1.32 6 2 C6.66 2.33 7.32 2.66 8 3 C5.36 3 2.72 3 0 3 C0 2.01 0 1.02 0 0 Z " fill="#AEB0BA" transform="translate(216,303)"/>
<path d="M0 0 C0.99 0.66 1.98 1.32 3 2 C2.34 3.65 1.68 5.3 1 7 C0.67 6.34 0.34 5.68 0 5 C-0.66 5 -1.32 5 -2 5 C-1.34 3.35 -0.68 1.7 0 0 Z " fill="#B5BBC5" transform="translate(203,295)"/>
<path d="M0 0 C0.99 0.99 1.98 1.98 3 3 C1.8125 4.5 1.8125 4.5 0 6 C-2.6875 6.1875 -2.6875 6.1875 -5 6 C-4.67 5.34 -4.34 4.68 -4 4 C-3.34 4 -2.68 4 -2 4 C-1.67 3.34 -1.34 2.68 -1 2 C-0.67 1.34 -0.34 0.68 0 0 Z " fill="#E9EBEC" transform="translate(227,273)"/>
<path d="M0 0 C0.66 0.33 1.32 0.66 2 1 C0.92598892 3.91517292 0.22189824 5.77810176 -2 8 C-2.33 6.35 -2.66 4.7 -3 3 C-2.34 3 -1.68 3 -1 3 C-0.67 2.01 -0.34 1.02 0 0 Z " fill="#3E495B" transform="translate(206,240)"/>
<path d="M0 0 C0.33 1.65 0.66 3.3 1 5 C-0.32 5.33 -1.64 5.66 -3 6 C-3.66 4.35 -4.32 2.7 -5 1 C-3 0 -3 0 0 0 Z " fill="#E5E9EA" transform="translate(262,238)"/>
<path d="M0 0 C0.33 0 0.66 0 1 0 C1.125 2.875 1.125 2.875 1 6 C0.34 6.66 -0.32 7.32 -1 8 C-1.99 7.67 -2.98 7.34 -4 7 C-2.68 4.69 -1.36 2.38 0 0 Z " fill="#4A5260" transform="translate(195,226)"/>
<path d="M0 0 C0.66 0 1.32 0 2 0 C3.4606285 2.64738916 4 3.89448334 4 7 C3.01 7 2.02 7 1 7 C0.67 4.69 0.34 2.38 0 0 Z " fill="#E5ECF4" transform="translate(215,207)"/>
<path d="M0 0 C0.66 0 1.32 0 2 0 C2 0.99 2 1.98 2 3 C3.32 3.33 4.64 3.66 6 4 C4.68 4 3.36 4 2 4 C1.67 4.66 1.34 5.32 1 6 C0.01 5.01 -0.98 4.02 -2 3 C-1.34 2.01 -0.68 1.02 0 0 Z " fill="#DADFE3" transform="translate(162,322)"/>
<path d="M0 0 C0.66 0.66 1.32 1.32 2 2 C0.68 4.31 -0.64 6.62 -2 9 C-2.6875 7.3125 -2.6875 7.3125 -3 5 C-1.5625 2.25 -1.5625 2.25 0 0 Z " fill="#3E4C59" transform="translate(163,315)"/>
<path d="M0 0 C3.375 -0.1875 3.375 -0.1875 7 0 C7.66 0.99 8.32 1.98 9 3 C5.625 3.1875 5.625 3.1875 2 3 C1.34 2.01 0.68 1.02 0 0 Z " fill="#B8BDC6" transform="translate(273,303)"/>
<path d="M0 0 C0.66 0.66 1.32 1.32 2 2 C1.01 3.98 0.02 5.96 -1 8 C-1.33 7.01 -1.66 6.02 -2 5 C-2.66 5 -3.32 5 -4 5 C-3.67 4.01 -3.34 3.02 -3 2 C-2.34 2 -1.68 2 -1 2 C-0.67 1.34 -0.34 0.68 0 0 Z " fill="#AEB6BF" transform="translate(180,293)"/>
<path d="M0 0 C0.99 0.33 1.98 0.66 3 1 C2.42655063 3.86724686 2.1385485 4.8614515 0 7 C-1.125 2.25 -1.125 2.25 0 0 Z " fill="#45515C" transform="translate(217,263)"/>
<path d="M0 0 C0.33 1.32 0.66 2.64 1 4 C0.34 4 -0.32 4 -1 4 C-1.33 5.65 -1.66 7.3 -2 9 C-2.99 9 -3.98 9 -5 9 C-3.35 6.03 -1.7 3.06 0 0 Z " fill="#4E5768" transform="translate(184,245)"/>
<path d="M0 0 C0.66 0.66 1.32 1.32 2 2 C1.01 3.98 0.02 5.96 -1 8 C-1.66 7.67 -2.32 7.34 -3 7 C-2.25 2.25 -2.25 2.25 0 0 Z " fill="#E1E6ED" transform="translate(181,246)"/>
<path d="M0 0 C2.72426311 2.35277269 3.8141763 4.62496331 5 8 C4.01 8 3.02 8 2 8 C1.67 7.01 1.34 6.02 1 5 C0.34 5 -0.32 5 -1 5 C-0.67 3.35 -0.34 1.7 0 0 Z " fill="#4B5765" transform="translate(251,230)"/>
<path d="M0 0 C2.5654594 2.5654594 2.54046087 4.47686668 3 8 C2.01 8.495 2.01 8.495 1 9 C0.01 7.02 -0.98 5.04 -2 3 C-1.34 3 -0.68 3 0 3 C0 2.01 0 1.02 0 0 Z " fill="#414F60" transform="translate(219,205)"/>
<path d="M0 0 C1.32 0.33 2.64 0.66 4 1 C3.34 2.65 2.68 4.3 2 6 C0.68 4.68 -0.64 3.36 -2 2 C-1.34 2 -0.68 2 0 2 C0 1.34 0 0.68 0 0 Z " fill="#E4E5EB" transform="translate(203,205)"/>
<path d="M0 0 C2.29013653 3.4352048 2.17842973 4.985331 2 9 C1.01 9 0.02 9 -1 9 C-0.67 6.03 -0.34 3.06 0 0 Z " fill="#CCCBC8" transform="translate(326,317)"/>
<path d="M0 0 C2 3.75 2 3.75 2 6 C0.35 6.66 -1.3 7.32 -3 8 C-1.125 2.25 -1.125 2.25 0 0 Z " fill="#475361" transform="translate(145,312)"/>
<path d="M0 0 C1.0625 1.8125 1.0625 1.8125 2 4 C1.67 4.99 1.34 5.98 1 7 C-0.32 7 -1.64 7 -3 7 C-1.125 1.125 -1.125 1.125 0 0 Z " fill="#B4BBC8" transform="translate(185,281)"/>
<path d="M0 0 C1.65 0 3.3 0 5 0 C5.33 1.98 5.66 3.96 6 6 C5.67 5.34 5.34 4.68 5 4 C4.34 3.67 3.68 3.34 3 3 C1 2 1 2 0 0 Z " fill="#C9CED6" transform="translate(307,264)"/>
<path d="M0 0 C0.99 0.99 1.98 1.98 3 3 C1.74458443 5.51083114 0.49936512 5.87125446 -2 7 C-2.6875 5.1875 -2.6875 5.1875 -3 3 C-1.5625 1.25 -1.5625 1.25 0 0 Z " fill="#415163" transform="translate(220,221)"/>
<path d="M0 0 C0.99 0 1.98 0 3 0 C3 0.99 3 1.98 3 3 C3.66 3 4.32 3 5 3 C4.67 4.32 4.34 5.64 4 7 C0 2.25 0 2.25 0 0 Z " fill="#E1EAF1" transform="translate(225,183)"/>
<path d="M0 0 C2.375 0.6875 2.375 0.6875 5 2 C6.3125 4.625 6.3125 4.625 7 7 C4.625 6.3125 4.625 6.3125 2 5 C0.6875 2.375 0.6875 2.375 0 0 Z " fill="#B6E5B7" transform="translate(370,123)"/>
<path d="M0 0 C0.66 0 1.32 0 2 0 C2 1.65 2 3.3 2 5 C0.02 5.99 0.02 5.99 -2 7 C-2.66 6.01 -3.32 5.02 -4 4 C-2.68 3.67 -1.36 3.34 0 3 C0 2.01 0 1.02 0 0 Z " fill="#DDEED2" transform="translate(372,369)"/>
<path d="M0 0 C0.33 0.66 0.66 1.32 1 2 C1.66 2 2.32 2 3 2 C2.34 3.32 1.68 4.64 1 6 C0.34 6 -0.32 6 -1 6 C-1.99 6.495 -1.99 6.495 -3 7 C-1.125 2.25 -1.125 2.25 0 0 Z " fill="#B9C5D0" transform="translate(171,305)"/>
</svg>
